<svg width="720" height="734" viewBox="0 0 720 734" fill="none" xmlns="http://www.w3.org/2000/svg">
<path d="M78.8913 643.798C78.8913 643.798 59.905 537.657 59.8544 515.833C59.7937 485.628 81.2393 473.603 81.2393 473.603L72.91 447.993H118.706L111.47 473.429C111.47 473.429 135.607 487.222 132.238 518.55C125.943 577.115 115.923 643.755 115.923 643.755L78.8913 643.798Z" fill="#EFF0F7"/>
<path d="M296.9 720.251C294.339 719.033 291.56 718.437 288.762 718.506C285.964 718.577 283.213 719.31 280.707 720.655C280.573 715.139 279.148 709.75 276.566 704.987C273.982 700.224 270.325 696.243 265.933 693.412C261.54 690.582 256.555 688.994 251.441 688.797C246.328 688.599 241.251 689.799 236.682 692.284C235.138 687.734 232.687 683.605 229.502 680.188C226.316 676.772 222.474 674.151 218.247 672.511C214.019 670.871 209.509 670.251 205.035 670.696C200.561 671.141 196.232 672.64 192.354 675.086C188.503 670.192 183.394 666.638 177.672 664.873C171.949 663.107 165.869 663.21 160.2 665.167C154.619 667.338 149.756 671.24 146.223 676.38C142.691 681.521 140.645 687.672 140.344 694.062C136.444 692.999 132.355 693.043 128.476 694.19C124.597 695.337 121.06 697.549 118.209 700.609C112.592 706.775 105.154 725.707 107.37 734L307.365 733.564C306.633 730.652 305.317 727.951 303.508 725.65C301.699 723.349 299.444 721.505 296.9 720.251Z" fill="#EFF0F7"/>
<path d="M674.765 643.881C674.765 644.033 523.704 644.164 337.403 644.164C151.102 644.164 0 644.022 0 643.881C0 643.738 151.031 643.586 337.403 643.586C523.775 643.586 674.765 643.717 674.765 643.881Z" fill="#DCDDEB"/>
<path d="M54.3892 547.171C49.6188 544.511 43.997 544.167 38.6944 545.084C35.8496 545.596 32.8887 546.513 30.9535 548.819C29.0182 551.125 28.6505 555.183 30.876 557.166C32.3141 558.212 34.0457 558.684 35.7722 558.501C39.9136 558.449 44.4808 557.655 47.8385 560.347C49.7252 561.892 50.9832 564.438 53.2474 565.199C54.3798 565.482 55.567 565.359 56.6287 564.849C57.6905 564.339 58.5689 563.469 59.1306 562.372C60.2135 560.12 60.4525 557.505 59.7982 555.069C59.5186 553.393 58.8854 551.81 57.9475 550.44C57.0096 549.071 55.7921 547.952 54.3892 547.171Z" fill="#05C168"/>
<path d="M65.3328 524.406C62.43 528.903 56.7307 527.411 54.1084 524.667C51.4862 521.923 50.3637 517.948 49.3477 514.12C47.0351 505.461 44.7032 496.384 46.4449 487.537C46.8589 484.865 47.9469 482.367 49.5896 480.317C50.4217 479.307 51.4853 478.55 52.6739 478.121C53.8624 477.692 55.1346 477.609 56.363 477.876C59.2658 478.69 60.9978 481.716 62.2848 484.595C66.0739 493.078 68.0575 502.367 68.0905 511.783C68.0905 516.164 67.6261 520.755 65.3425 524.375" fill="#05C168"/>
<path d="M73.3447 530.813C70.1806 526.754 69.571 520.839 70.9836 515.758C72.3964 510.677 75.5799 506.369 79.2568 502.821C83.5821 498.689 88.6098 495.5 94.0614 493.432C96.1745 492.518 98.4445 492.102 100.718 492.211C101.856 492.283 102.96 492.655 103.934 493.29C104.909 493.926 105.725 494.809 106.312 495.863C107.87 499.065 106.379 502.957 104.763 506.129C101.911 511.713 98.6605 517.051 95.0388 522.091C92.1359 526.149 88.7783 530.145 84.3368 531.971C79.8955 533.796 75.2799 533.588 72.9189 530.27" fill="#05C168"/>
<path d="M65.5261 592.219C65.3643 591.538 65.2766 590.837 65.2648 590.133C65.1294 588.652 64.9552 586.785 64.7617 584.562C64.5019 581.817 64.1144 579.086 63.6005 576.383C62.916 573.094 61.9939 569.867 60.8428 566.733C59.7052 563.604 58.1644 560.665 56.266 558C54.7155 555.816 52.7319 554.035 50.4602 552.784C48.9355 551.974 47.3033 551.425 45.6221 551.156C44.9697 551.128 44.3214 551.031 43.6869 550.864C44.3296 550.781 44.9793 550.781 45.6221 550.864C47.3814 551 49.1028 551.481 50.7021 552.284C53.0786 553.494 55.1646 555.279 56.7981 557.499C58.7778 560.2 60.3755 563.203 61.5395 566.409C62.7122 569.586 63.6252 572.867 64.2682 576.216C64.7467 578.953 65.0699 581.72 65.2358 584.5C65.4002 586.868 65.4583 588.788 65.4873 590.113C65.5769 590.811 65.5899 591.518 65.5261 592.219Z" fill="#211F54"/>
<path d="M65.1687 587.932C65.1352 587.616 65.1352 587.298 65.1687 586.983C65.1687 586.273 65.1687 585.375 65.1687 584.27C65.1687 581.923 65.1687 578.522 65.0526 574.317C64.8591 565.909 64.1914 556.852 62.8948 544.062C61.6659 532.064 59.992 518.105 58.2793 509.029C57.9019 506.942 57.5245 505.106 57.1762 503.478C56.8279 501.85 56.5473 500.442 56.2666 499.306C55.986 498.168 55.8409 497.365 55.6861 496.665C55.5992 496.364 55.5472 496.053 55.5312 495.737C55.6601 496.02 55.7607 496.318 55.8312 496.624L56.5665 499.222C56.8859 500.349 57.2246 501.747 57.602 503.395C57.9793 505.043 58.4051 506.869 58.8211 508.935C60.9684 519.671 62.5833 530.523 63.6592 541.443C64.9558 554.223 65.5945 565.867 65.5945 574.296C65.5945 578.47 65.5945 581.923 65.459 584.27C65.4009 585.375 65.3428 586.273 65.3042 586.983C65.299 587.304 65.2533 587.624 65.1687 587.932Z" fill="#211F54"/>
<path d="M65.1198 565.48C65.0457 564.539 65.0457 563.594 65.1198 562.653C65.2166 560.827 65.4489 558.199 65.923 554.974C66.4991 551.207 67.2712 547.476 68.2356 543.801C69.3672 539.279 70.8164 534.856 72.5705 530.572C75.5777 522.676 79.8927 515.436 85.3044 509.206C86.2401 508.136 87.2388 507.132 88.2944 506.201C88.7588 505.784 89.1652 505.366 89.5716 505.033L90.7425 504.167C91.4434 503.592 92.1878 503.084 92.968 502.643C93.0938 502.831 89.8328 504.897 85.7205 509.613C80.4935 515.901 76.2955 523.101 73.3059 530.906C71.5849 535.168 70.1302 539.549 68.9517 544.02C67.9558 547.658 67.1323 551.35 66.4842 555.079C65.9424 558.271 65.6327 560.88 65.4391 562.674C65.396 563.617 65.2893 564.554 65.1198 565.48Z" fill="#211F54"/>
<path d="M85.2464 605.083L83.1563 635.902H46.4351L44.3451 605.083H85.2464Z" fill="#4B3CFB"/>
<path d="M88.7976 592.94H39.9715V605.083H88.7976V592.94Z" fill="#3F37A0"/>
<path d="M88.7879 634.723V638.092H86.4947H40.7746V634.723H88.7879Z" fill="#3F37A0"/>
<path d="M84.2498 644.019L86.4946 638.093H42.526L45.1483 644.019H84.2498Z" fill="#4B3CFB"/>
<path d="M618.762 341.136C623.532 338.476 629.154 338.131 634.456 339.049C637.301 339.561 640.262 340.478 642.197 342.784C644.132 345.09 644.5 349.148 642.275 351.131C640.837 352.176 639.105 352.649 637.379 352.466C633.237 352.413 628.67 351.621 625.312 354.312C623.426 355.857 622.168 358.402 619.903 359.164C618.771 359.447 617.584 359.324 616.522 358.814C615.461 358.303 614.582 357.434 614.021 356.336C612.938 354.085 612.699 351.47 613.352 349.034C613.633 347.358 614.265 345.775 615.203 344.405C616.141 343.036 617.359 341.917 618.762 341.136Z" fill="#05C168"/>
<path d="M607.818 318.371C610.721 322.868 616.42 321.376 619.042 318.633C621.665 315.888 622.786 311.913 623.803 308.085C626.115 299.426 628.447 290.349 626.706 281.502C626.292 278.83 625.203 276.332 623.561 274.282C622.729 273.272 621.666 272.514 620.477 272.086C619.288 271.658 618.016 271.574 616.788 271.841C613.885 272.655 612.153 275.68 610.866 278.56C607.077 287.043 605.093 296.332 605.06 305.748C605.06 310.13 605.525 314.72 607.808 318.34" fill="#05C168"/>
<path d="M599.807 324.777C602.971 320.719 603.58 314.804 602.167 309.723C600.754 304.642 597.572 300.334 593.894 296.787C589.569 292.654 584.542 289.465 579.09 287.397C576.977 286.483 574.707 286.067 572.432 286.176C571.296 286.248 570.191 286.619 569.216 287.255C568.243 287.892 567.426 288.774 566.84 289.827C565.282 293.031 566.772 296.922 568.388 300.094C571.24 305.678 574.491 311.016 578.112 316.056C581.016 320.114 584.373 324.11 588.814 325.936C593.256 327.761 597.872 327.553 600.232 324.235" fill="#05C168"/>
<path d="M607.625 386.185C607.787 385.502 607.875 384.803 607.886 384.098C608.021 382.616 608.196 380.749 608.389 378.527C608.649 375.782 609.036 373.051 609.55 370.348C610.235 367.059 611.157 363.832 612.308 360.697C613.446 357.569 614.987 354.63 616.885 351.966C618.435 349.781 620.419 347.999 622.691 346.749C624.216 345.939 625.847 345.39 627.529 345.122C628.182 345.093 628.829 344.996 629.464 344.829C628.822 344.746 628.172 344.746 627.529 344.829C625.77 344.965 624.048 345.447 622.449 346.248C620.073 347.459 617.987 349.245 616.353 351.464C614.373 354.165 612.775 357.169 611.612 360.374C610.438 363.551 609.526 366.832 608.883 370.181C608.404 372.918 608.081 375.684 607.915 378.464C607.751 380.833 607.693 382.753 607.663 384.077C607.574 384.775 607.561 385.483 607.625 386.185Z" fill="#211F54"/>
<path d="M607.983 381.896C608.016 381.581 608.016 381.263 607.983 380.947C607.983 380.237 607.983 379.341 607.983 378.234C607.983 375.887 607.983 372.486 608.098 368.281C608.292 359.873 608.959 350.817 610.256 338.027C611.485 326.029 613.159 312.07 614.872 302.993C615.249 300.906 615.626 299.07 615.975 297.443C616.323 295.816 616.604 294.406 616.884 293.27C617.165 292.132 617.31 291.329 617.465 290.63C617.552 290.328 617.603 290.017 617.62 289.701C617.49 289.985 617.39 290.282 617.32 290.588L616.585 293.186C616.265 294.313 615.927 295.711 615.549 297.359C615.172 299.007 614.746 300.833 614.33 302.899C612.183 313.635 610.568 324.487 609.492 335.408C608.195 348.188 607.556 359.831 607.556 368.26C607.556 372.434 607.556 375.887 607.692 378.234C607.75 379.341 607.808 380.237 607.846 380.947C607.852 381.269 607.898 381.588 607.983 381.896Z" fill="#211F54"/>
<path d="M608.031 359.446C608.106 358.506 608.106 357.56 608.031 356.618C607.935 354.793 607.702 352.164 607.228 348.94C606.652 345.172 605.88 341.441 604.916 337.767C603.784 333.244 602.335 328.823 600.581 324.538C597.574 316.641 593.259 309.402 587.847 303.171C586.911 302.102 585.913 301.097 584.857 300.166C584.393 299.749 583.986 299.332 583.579 298.998L582.409 298.132C581.708 297.558 580.963 297.049 580.184 296.609C580.057 296.797 583.319 298.863 587.43 303.578C592.658 309.866 596.856 317.067 599.846 324.872C601.567 329.133 603.021 333.515 604.2 337.986C605.196 341.625 606.019 345.316 606.667 349.044C607.209 352.237 607.518 354.845 607.712 356.639C607.755 357.582 607.862 358.52 608.031 359.446Z" fill="#211F54"/>
<path d="M582.339 543.302H568.966V600.633H582.339V543.302Z" fill="#EFF0F7"/>
<path d="M671.269 543.302H657.896V600.633H671.269V543.302Z" fill="#DCDDEB"/>
<path d="M757.026 411.161H568.781V543.197H757.026V411.161Z" fill="#EFF0F7"/>
<path d="M734.145 477.205C734.131 476.956 734.131 476.707 734.145 476.458C734.145 475.933 734.145 475.226 734.145 474.317C734.145 472.399 734.145 469.632 734.145 466.057C734.145 458.849 734.052 448.388 733.995 435.16L734.295 435.483L587.472 435.686L587.959 435.16V440.512C587.959 442.309 587.959 444.087 587.959 445.884V477.165L587.472 476.64L692.209 476.882L723.057 477.023H731.373H733.546H734.313H733.602H731.504H723.282L692.547 477.185L587.472 477.407H587.004V456.526C587.004 453.012 587.004 449.479 587.004 445.924V435.201L587.509 434.676L734.333 434.878H734.37V435.201C734.37 448.509 734.258 459.03 734.22 466.28C734.22 469.834 734.22 472.561 734.22 474.479C734.22 475.368 734.22 476.054 734.22 476.498C734.22 476.943 734.145 477.205 734.145 477.205Z" fill="#DCDDEB"/>
<path d="M667.147 456.183C667.147 457.554 666.77 458.893 666.064 460.031C665.358 461.17 664.355 462.058 663.181 462.582C662.007 463.107 660.716 463.244 659.469 462.977C658.223 462.709 657.078 462.05 656.18 461.081C655.282 460.112 654.67 458.878 654.422 457.535C654.174 456.19 654.301 454.798 654.787 453.532C655.274 452.267 656.097 451.185 657.154 450.424C658.209 449.663 659.452 449.256 660.723 449.256C662.426 449.256 664.061 449.986 665.265 451.285C666.47 452.584 667.147 454.346 667.147 456.183Z" fill="#DCDDEB"/>
<path d="M596.293 361.775L603.485 372.922C603.485 372.922 587.303 377.769 587.303 393.258C587.303 408.747 597.192 411.656 607.906 411.656C618.619 411.656 629.014 408.262 628.508 392.774C628.003 377.284 614.573 371.468 614.573 371.468L621.316 361.775H596.293Z" fill="#0075FF"/>
<path d="M523.884 76.9249C524.306 76.4886 527.209 78.7272 531.01 83.3563C533.228 86.0765 535.252 88.9749 537.063 92.0263C539.279 95.7747 541.226 99.7007 542.887 103.77C544.502 107.862 545.831 112.08 546.863 116.386C547.695 119.901 548.283 123.478 548.622 127.086C549.151 133.251 548.623 137.065 548.095 137.103C546.722 137.103 545.473 122.287 538.717 105.743C531.959 89.1996 522.863 77.9304 523.884 76.9249Z" fill="#05C168"/>
<path d="M552.582 149.416C551.984 149.416 550.348 141.353 548.816 127.978C547.286 114.603 546.001 96.0296 545.508 75.5023C545.016 54.975 545.209 36.4207 545.508 22.9888C545.808 9.55682 546.476 1.24722 547.11 1.24722C547.743 1.24722 548.306 9.5568 548.746 22.9698C549.186 36.3827 549.503 54.9371 550.013 75.3695C550.524 95.802 551.262 114.281 551.984 127.655C552.705 141.031 553.251 149.416 552.582 149.416Z" fill="#05C168"/>
<path d="M580.348 32.8352C580.947 33.1957 578.589 38.9061 575.404 48.4298C572.219 57.9537 568.26 71.1959 564.389 86.1076C560.518 101.019 557.597 114.565 555.802 124.544C554.008 134.523 553.268 140.67 552.583 140.651C551.896 140.632 551.527 134.219 552.583 124.013C554.103 110.757 556.568 97.6468 559.955 84.7986C563.201 71.9082 567.359 59.3055 572.395 47.1018C576.389 37.7489 579.856 32.5126 580.348 32.8352Z" fill="#05C168"/>
<path d="M516.844 132.341V148.676C516.84 153.256 517.672 157.791 519.295 162.024C520.917 166.257 523.298 170.103 526.3 173.344C529.301 176.584 532.866 179.155 536.79 180.908C540.714 182.662 544.92 183.565 549.168 183.565C553.414 183.567 557.62 182.667 561.544 180.917C565.467 179.167 569.033 176.6 572.036 173.363C575.039 170.128 577.422 166.285 579.047 162.055C580.672 157.826 581.509 153.292 581.509 148.714V132.341H516.844Z" fill="#6E7191"/>
<path d="M772.019 183.603H473.647V202.214H772.019V183.603Z" fill="#EFF0F7"/>
<path d="M540.053 202.214H530.217V234.427H540.053V202.214Z" fill="#DCDDEB"/>
<path d="M703.729 202.214H693.892V234.427H703.729V202.214Z" fill="#DCDDEB"/>
<path d="M799.344 382.771V411.144H686.16C682.683 411.144 679.347 409.654 676.889 407.003C674.43 404.352 673.049 400.757 673.049 397.008C673.049 393.258 674.43 389.663 676.889 387.012C679.347 384.361 682.683 382.871 686.16 382.871" fill="#3F37A0"/>
<path d="M799.344 355.509V383.882H686.16C682.683 383.882 679.347 382.392 676.889 379.741C674.43 377.09 673.049 373.495 673.049 369.746C673.049 365.997 674.43 362.401 676.889 359.75C679.347 357.099 682.683 355.609 686.16 355.609L799.344 355.509Z" fill="#4B3CFB"/>
<path d="M644.15 116.557L637.394 184.172H723.982L731.178 116.557H644.15Z" fill="#DCDDEB"/>
<path d="M647.704 121.414L641.123 180.587H719.284L725.619 121.414H647.704Z" fill="white"/>
<path d="M660.867 131.355L656.819 170.626H706.14L708.674 131.355H660.867Z" fill="#4B3CFB"/>
<g filter="url(#filter0_i_1_50)">
<path d="M551.362 589.634L562.165 644.283H548.308L525.107 588.714L551.362 589.634Z" fill="#6E7191"/>
<path d="M551.362 589.635H550.849H549.473L544.209 589.496L525.07 588.932L525.244 588.655L544.988 635.791C546.169 638.638 547.339 641.443 548.501 644.205L548.281 644.046H562.138L561.917 644.343C558.827 628.523 556.168 614.858 554.27 605.158C553.352 600.313 552.6 596.457 552.086 593.778C551.839 592.463 551.647 591.444 551.518 590.722C551.454 590.386 551.408 590.129 551.371 589.921C551.363 589.829 551.363 589.737 551.371 589.644C551.398 589.725 551.421 589.808 551.435 589.892L551.601 590.653C551.748 591.365 551.958 592.363 552.224 593.619L554.517 604.95C556.47 614.68 559.203 628.354 562.385 644.235L562.449 644.531H548.153L548.097 644.383L544.576 635.968C537.056 617.883 530.169 601.361 524.941 588.784L524.823 588.497H525.107L544.365 589.269L549.593 589.506L550.94 589.575C551.082 589.585 551.223 589.604 551.362 589.635Z" fill="#6E7191"/>
<path d="M168.314 589.634L157.511 644.283H171.358L194.569 588.714L168.314 589.634Z" fill="#6E7191"/>
<path d="M168.314 589.635C168.462 589.622 168.613 589.622 168.762 589.635L170.111 589.566L175.329 589.328L194.587 588.557H194.881L194.761 588.843L175.118 636.028C173.932 638.876 172.761 641.681 171.605 644.443L171.541 644.59H157.226L157.281 644.294C160.463 628.414 163.205 614.74 165.149 605.01C166.13 600.204 166.91 596.368 167.452 593.708C167.726 592.413 167.928 591.414 168.074 590.742L168.249 589.981C168.249 589.813 168.304 589.724 168.314 589.733C168.303 589.827 168.287 589.919 168.267 590.01C168.267 590.218 168.185 590.475 168.13 590.811C167.993 591.533 167.8 592.552 167.561 593.867C167.048 596.546 166.304 600.403 165.369 605.247C163.48 614.947 160.784 628.592 157.731 644.432L157.51 644.135H171.358L171.147 644.294C172.296 641.532 173.467 638.727 174.659 635.88L194.404 588.745L194.568 589.021L175.43 589.586L170.175 589.724H168.79L168.314 589.635Z" fill="#6E7191"/>
<path d="M581.13 535.055H170.469V605.949H581.13V535.055Z" fill="#CBCDDC"/>
<path d="M370.269 478.318V398.426C370.267 397.023 370.521 395.633 371.017 394.336C371.513 393.04 372.242 391.862 373.16 390.869C374.08 389.876 375.172 389.088 376.373 388.551C377.575 388.013 378.863 387.737 380.164 387.737H553.168C555.79 387.737 558.304 388.86 560.159 390.859C562.012 392.858 563.055 395.569 563.055 398.396V509.415L370.012 515.348L370.269 478.318Z" fill="#CBCDDC"/>
<path d="M176.595 478.318V398.426C176.596 397.02 176.854 395.628 177.354 394.33C177.855 393.032 178.587 391.852 179.511 390.86C180.434 389.867 181.529 389.081 182.735 388.545C183.94 388.009 185.232 387.734 186.535 387.737H360.338C362.966 387.731 365.487 388.851 367.35 390.85C369.212 392.848 370.262 395.563 370.27 398.396L370.013 515.308L176.595 509.376V478.318Z" fill="#CBCDDC"/>
<path d="M606.68 605.187H562.312C558.167 605.187 554.811 600.441 554.811 594.587V468.361C554.811 462.507 558.167 457.761 562.431 457.761H606.79C610.816 457.761 614.126 462.507 614.126 468.361V594.587C614.181 600.441 610.825 605.187 606.68 605.187Z" fill="#CBCDDC"/>
<path d="M606.68 605.187C606.68 605.187 607.01 605.187 607.597 605.059C608.537 604.879 609.426 604.466 610.192 603.852C611.422 602.841 612.391 601.507 613.008 599.977C613.413 599.009 613.699 597.989 613.86 596.941C614.022 595.744 614.083 594.532 614.044 593.323C614.044 583.019 613.998 568.118 613.962 549.707C613.925 531.297 613.962 509.366 613.962 485.013C613.962 481.966 613.962 478.889 613.962 475.777V471.071C614.012 469.5 613.966 467.928 613.823 466.364C613.613 464.806 613.127 463.305 612.393 461.944C611.67 460.569 610.602 459.441 609.312 458.691C608.67 458.322 607.964 458.103 607.239 458.049C606.514 457.979 605.726 458.049 604.974 458.049H562.349C560.76 458.115 559.252 458.82 558.122 460.026C556.987 461.215 556.141 462.684 555.654 464.307C555.187 465.939 554.983 467.644 555.049 469.35V494.712C555.049 507.962 555.049 520.747 555.049 532.919C555.049 545.09 555.049 556.649 555.049 567.526C555.049 572.931 555.049 578.155 555.049 583.198V590.584C555.049 591.78 555.049 592.977 555.049 594.153C555.021 595.305 555.119 596.457 555.343 597.584C555.743 599.766 556.758 601.762 558.249 603.299C558.975 604.016 559.84 604.55 560.781 604.861C561.718 605.096 562.682 605.182 563.642 605.118H574.509H591.933L602.938 605.168H605.799H606.771H605.799H602.938H591.933H574.509H563.642C562.654 605.24 561.661 605.149 560.698 604.901C559.708 604.589 558.798 604.034 558.039 603.279C556.485 601.687 555.427 599.614 555.012 597.347C554.784 596.194 554.679 595.016 554.701 593.836V590.267C554.701 587.854 554.701 585.392 554.701 582.881C554.701 577.851 554.701 572.627 554.701 567.209C554.701 556.332 554.701 544.814 554.701 532.602C554.701 520.39 554.701 507.645 554.701 494.395C554.701 487.804 554.701 481.067 554.701 474.185V469.033C554.637 467.274 554.851 465.515 555.333 463.832C555.841 462.125 556.733 460.58 557.929 459.334C559.15 458.059 560.769 457.322 562.468 457.267H604.956C605.726 457.267 606.46 457.267 607.258 457.267C608.043 457.335 608.807 457.574 609.504 457.969C610.871 458.763 612.003 459.955 612.769 461.41C613.534 462.825 614.039 464.386 614.254 466.008C614.399 467.598 614.448 469.197 614.401 470.794C614.401 472.366 614.401 473.938 614.401 475.5V484.736C614.401 509.089 614.401 531.01 614.347 549.43C614.291 567.852 614.291 582.743 614.273 593.046C614.308 594.266 614.238 595.488 614.062 596.694C613.886 597.756 613.577 598.787 613.145 599.759C612.519 601.326 611.523 602.691 610.256 603.714C609.474 604.323 608.569 604.724 607.615 604.881C607.312 605.013 606.999 605.116 606.68 605.187Z" fill="#6E7191"/>
<path d="M550.014 507.971H377.532C373.177 507.971 369.646 511.778 369.646 516.475V540.433C369.646 545.129 373.177 548.937 377.532 548.937H550.014C554.37 548.937 557.901 545.129 557.901 540.433V516.475C557.901 511.778 554.37 507.971 550.014 507.971Z" fill="#CBCDDC"/>
<path d="M550.014 548.907C550.014 548.907 550.399 548.907 551.133 548.778C552.569 548.541 553.915 547.88 555.025 546.868C556.134 545.855 556.961 544.531 557.414 543.044C557.745 541.862 557.875 540.627 557.8 539.395C557.8 538.07 557.8 536.656 557.8 535.163C557.8 532.197 557.8 528.834 557.8 525.196C557.8 523.377 557.8 521.468 557.8 519.501C557.8 517.533 558.019 515.417 557.277 513.479C556.55 511.446 555.115 509.8 553.279 508.892C551.398 507.903 549.17 508.189 546.942 508.14H532.773L377.523 508.288C375.685 508.291 373.91 509.011 372.525 510.316C371.143 511.602 370.244 513.388 369.994 515.338C369.912 516.324 369.883 517.315 369.912 518.305V539.148C369.872 540.103 369.92 541.061 370.059 542.005C370.224 542.925 370.534 543.808 370.975 544.615C371.861 546.24 373.247 547.478 374.891 548.116C376.496 548.808 378.294 548.581 380.064 548.62H415.929L485.7 548.68L532.727 548.789L545.566 548.847H548.886H550.023H548.886H545.566L532.727 548.907L485.7 549.006L415.929 549.075H377.413C376.015 549.059 374.643 548.657 373.431 547.905C372.219 547.153 371.206 546.078 370.49 544.784C370.01 543.915 369.669 542.966 369.481 541.975C369.339 540.995 369.287 540.002 369.325 539.01V518.314C369.292 517.292 369.322 516.267 369.416 515.249C369.689 513.145 370.668 511.221 372.168 509.841C373.662 508.443 375.572 507.671 377.55 507.665L532.727 507.754H546.895H550.198C551.295 507.774 552.376 508.043 553.371 508.546C554.773 509.242 555.961 510.356 556.793 511.758C557.625 513.16 558.067 514.791 558.066 516.455C558.066 517.444 558.066 518.492 558.066 519.481C558.066 521.459 558.066 523.357 558.066 525.176C558.066 528.816 558.066 532.147 558.066 535.144C558.066 536.636 558.066 538.05 558.066 539.375C558.133 540.629 557.99 541.885 557.644 543.083C557.059 544.959 555.89 546.56 554.333 547.611C553.385 548.256 552.318 548.668 551.206 548.818C550.813 548.895 550.413 548.924 550.014 548.907Z" fill="#6E7191"/>
<path d="M169.424 605.948H125.056C120.92 605.948 117.555 601.203 117.555 595.349V469.133C117.555 463.279 120.92 458.533 125.185 458.533H169.542C173.569 458.533 176.879 463.279 176.879 469.133V595.379C176.925 601.203 173.569 605.948 169.424 605.948Z" fill="#CBCDDC"/>
<path d="M169.423 605.95C169.423 605.95 169.754 605.95 170.34 605.831C171.277 605.641 172.164 605.229 172.935 604.624C174.168 603.615 175.137 602.281 175.751 600.749C176.155 599.78 176.441 598.759 176.603 597.713C176.765 596.514 176.827 595.303 176.787 594.094C176.787 583.781 176.787 568.88 176.713 550.479C176.64 532.078 176.713 510.127 176.659 485.783C176.659 482.738 176.659 479.656 176.659 476.539V471.842C176.709 470.269 176.664 468.693 176.521 467.126C176.309 465.571 175.823 464.075 175.09 462.716C174.372 461.336 173.303 460.208 172.009 459.463C171.367 459.095 170.661 458.874 169.937 458.81C169.212 458.751 168.424 458.81 167.671 458.81H163.086H125.055C123.472 458.859 121.963 459.547 120.828 460.738C119.694 461.927 118.847 463.397 118.361 465.019C117.892 466.647 117.688 468.35 117.756 470.053V495.414C117.756 508.674 117.756 521.448 117.756 533.631C117.756 545.812 117.756 557.361 117.756 568.238C117.756 573.646 117.756 578.876 117.756 583.899V591.285C117.756 592.492 117.756 593.678 117.756 594.865C117.728 596.017 117.827 597.169 118.049 598.296C118.454 600.477 119.468 602.471 120.956 604.012C121.682 604.726 122.547 605.255 123.487 605.564C124.424 605.806 125.388 605.896 126.348 605.831H137.215H154.64L165.645 605.88H168.506H169.478H168.506H165.645L154.64 605.93H137.215H126.348C125.361 605.997 124.368 605.907 123.405 605.662C122.436 605.413 121.529 604.941 120.745 604.278C119.193 602.684 118.136 600.612 117.719 598.345C117.489 597.193 117.388 596.014 117.416 594.836C117.416 593.649 117.416 592.463 117.416 591.256C117.416 588.843 117.416 586.381 117.416 583.87C117.416 578.847 117.416 573.617 117.416 568.208C117.416 557.331 117.416 545.802 117.416 533.601C117.416 521.399 117.416 508.644 117.416 495.385C117.416 488.793 117.416 482.056 117.416 475.174V470.023C117.339 468.279 117.533 466.535 117.994 464.861C118.502 463.154 119.393 461.608 120.589 460.363C121.819 459.071 123.459 458.332 125.175 458.296H167.8C168.57 458.296 169.304 458.296 170.102 458.296C170.888 458.359 171.653 458.598 172.349 458.997C173.718 459.787 174.851 460.98 175.613 462.439C176.379 463.853 176.884 465.415 177.099 467.037C177.244 468.627 177.292 470.226 177.245 471.823V485.764C177.245 510.108 177.245 532.039 177.191 550.459C177.136 568.88 177.136 583.761 177.117 594.074C177.152 595.295 177.081 596.517 176.906 597.722C176.733 598.785 176.424 599.816 175.989 600.787C175.359 602.336 174.363 603.679 173.101 604.684C172.318 605.295 171.413 605.698 170.459 605.86C170.117 605.922 169.77 605.953 169.423 605.95Z" fill="#6E7191"/>
<path d="M361.759 507.517H178.649C174.293 507.517 170.763 511.324 170.763 516.02V540.888C170.763 545.584 174.293 549.392 178.649 549.392H361.759C366.115 549.392 369.646 545.584 369.646 540.888V516.02C369.646 511.324 366.115 507.517 361.759 507.517Z" fill="#CBCDDC"/>
<path d="M361.759 549.392C361.759 549.392 362.163 549.392 362.942 549.253C364.45 548.988 365.854 548.253 366.979 547.136C368.104 546.02 368.9 544.573 369.269 542.974C369.51 541.699 369.593 540.396 369.518 539.098C369.518 537.704 369.518 536.221 369.518 534.649C369.518 531.495 369.518 527.994 369.518 524.158C369.518 522.24 369.518 520.203 369.518 518.166C369.518 517.127 369.518 516.05 369.453 515.002C369.339 513.931 369.026 512.895 368.536 511.957C368.023 510.965 367.327 510.096 366.492 509.406C365.656 508.715 364.697 508.217 363.676 507.942C362.587 507.7 361.474 507.614 360.365 507.685H356.88H341.978L178.685 507.783C176.756 507.782 174.899 508.572 173.49 509.994C172.081 511.414 171.227 513.361 171.101 515.437C171.101 519.649 171.101 523.89 171.101 528.073C171.101 532.256 171.101 536.408 171.101 540.532C171.05 542.532 171.665 544.486 172.834 546.039C173.993 547.56 175.621 548.581 177.42 548.917C178.332 549.035 179.253 549.075 180.171 549.035H220.705L294.116 549.104L343.637 549.203L357.091 549.263H360.594H361.786H360.594H357.091L343.637 549.312L294.116 549.421L220.705 549.48H180.161C179.209 549.525 178.255 549.482 177.31 549.352C175.352 549.005 173.579 547.901 172.322 546.247C171.064 544.592 170.408 542.501 170.477 540.363C170.477 536.244 170.477 532.091 170.477 527.905C170.477 523.703 170.477 519.52 170.477 515.229C170.617 512.996 171.537 510.903 173.052 509.372C174.567 507.842 176.563 506.987 178.64 506.983L341.932 507.082H356.834H360.319C361.457 507.019 362.598 507.114 363.712 507.368C364.776 507.662 365.775 508.185 366.644 508.907C367.515 509.63 368.239 510.536 368.774 511.571C369.271 512.556 369.583 513.639 369.692 514.754C369.792 515.861 369.737 516.91 369.746 517.959C369.746 520.035 369.746 522.032 369.746 523.95C369.746 527.787 369.746 531.284 369.746 534.441C369.746 536.013 369.746 537.497 369.746 538.89C369.818 540.217 369.723 541.547 369.462 542.845C369.076 544.47 368.251 545.933 367.092 547.051C365.932 548.169 364.491 548.89 362.951 549.124C362.647 549.17 362.341 549.195 362.034 549.193L361.759 549.392Z" fill="#6E7191"/>
<path d="M370.269 397.525C370.434 397.525 370.563 423.085 370.563 454.607C370.563 486.129 370.434 511.689 370.269 511.689C370.104 511.689 369.985 486.139 369.985 454.607C369.985 423.075 370.113 397.525 370.269 397.525Z" fill="#6E7191"/>
<path d="M469.092 433.656C469.092 433.656 468.917 433.923 468.688 434.417C468.389 435.118 468.287 435.898 468.395 436.662C468.458 437.215 468.633 437.747 468.907 438.22C469.181 438.693 469.548 439.097 469.981 439.401C470.539 439.679 471.158 439.784 471.768 439.708C472.379 439.631 472.958 439.374 473.442 438.965C473.925 438.557 474.295 438.011 474.51 437.389C474.724 436.769 474.776 436.096 474.658 435.445C474.487 434.92 474.208 434.442 473.846 434.046C473.483 433.649 473.043 433.343 472.558 433.151C471.894 432.857 471.162 432.784 470.458 432.944C469.963 433.062 469.707 433.231 469.678 433.181C469.869 432.951 470.118 432.786 470.394 432.707C471.141 432.436 471.949 432.436 472.696 432.707C473.261 432.902 473.777 433.233 474.207 433.674C474.636 434.117 474.965 434.658 475.172 435.258C475.409 435.991 475.409 436.789 475.172 437.522C474.908 438.289 474.454 438.963 473.859 439.471C473.264 439.978 472.551 440.299 471.797 440.399C471.08 440.488 470.356 440.314 469.743 439.905C469.249 439.551 468.838 439.08 468.539 438.528C468.24 437.976 468.062 437.358 468.018 436.72C467.938 435.877 468.119 435.029 468.532 434.308C468.798 433.803 469.073 433.636 469.092 433.656Z" fill="#6E7191"/>
<path d="M486.654 418.765C486.654 418.874 485.48 418.893 483.682 419.446C481.339 420.145 479.2 421.472 477.462 423.306C475.725 425.139 474.448 427.418 473.75 429.928C473.2 431.906 473.145 433.122 473.045 433.111C472.988 432.818 472.988 432.516 473.045 432.222C473.082 431.406 473.198 430.598 473.393 429.809C474.005 427.167 475.286 424.761 477.09 422.856C478.895 420.952 481.155 419.625 483.618 419.022C484.353 418.834 485.102 418.724 485.856 418.696C486.123 418.663 486.395 418.686 486.654 418.765Z" fill="#6E7191"/>
<path d="M446.037 439.836C446.175 439.528 446.362 439.247 446.588 439.005C447.155 438.298 447.787 437.655 448.476 437.087C450.761 435.178 453.511 434.027 456.391 433.774C459.272 433.521 462.158 434.178 464.7 435.663C465.461 436.087 466.18 436.594 466.845 437.176C467.313 437.611 467.543 437.878 467.515 437.908C467.487 437.937 466.442 437.028 464.507 436.019C462.005 434.686 459.213 434.112 456.431 434.358C453.651 434.604 450.983 435.659 448.715 437.413C446.963 438.778 446.12 439.915 446.037 439.836Z" fill="#6E7191"/>
<path d="M473.338 450.187C473.273 450.187 472.815 449.703 472.183 448.743C471.294 447.494 470.705 446.027 470.467 444.473C470.366 443.674 470.438 442.86 470.679 442.097C470.919 441.333 471.321 440.64 471.852 440.073C472.769 439.232 473.522 439.252 473.512 439.312C473.503 439.37 472.842 439.558 472.146 440.389C471.718 440.939 471.401 441.579 471.214 442.269C471.028 442.958 470.976 443.681 471.064 444.393C471.307 445.856 471.811 447.252 472.55 448.506C472.886 449.023 473.152 449.59 473.338 450.187Z" fill="#6E7191"/>
</g>
<path d="M563.81 628.213L580.815 683.147L513.802 707.406C512.14 700.749 542.697 675.108 542.697 675.108L530.414 640.427L563.81 628.213Z" fill="#A0A3BD"/>
<g opacity="0.6">
<path opacity="0.6" d="M580.777 683.22L578.894 677.704L515.319 702.964C515.319 702.964 512.703 705.362 513.763 707.379L580.777 683.22Z" fill="white"/>
</g>
<path d="M538.578 658.241C539.773 658.155 540.928 657.732 541.926 657.014C543.065 656.363 544.127 655.568 545.092 654.644C545.66 654.102 546.197 653.523 546.701 652.91C547.004 652.561 547.259 652.166 547.459 651.74C547.6 651.43 547.636 651.078 547.562 650.743C547.488 650.409 547.308 650.113 547.054 649.906C546.81 649.732 546.532 649.62 546.242 649.578C545.952 649.537 545.657 649.567 545.38 649.665C544.953 649.818 544.549 650.03 544.176 650.301C543.519 650.711 542.898 651.183 542.319 651.711C541.356 652.632 540.531 653.708 539.873 654.898C538.773 656.929 538.643 658.368 538.773 658.396C538.904 658.424 539.388 657.127 540.579 655.35C541.286 654.302 542.112 653.354 543.038 652.529C543.585 652.048 544.167 651.615 544.777 651.231C545.418 650.78 546.02 650.555 546.308 650.808C546.596 651.062 546.439 650.964 546.308 651.217C546.158 651.53 545.968 651.819 545.745 652.077C545.292 652.667 544.807 653.226 544.294 653.756C543.414 654.662 542.46 655.479 541.442 656.196C540.449 656.815 539.493 657.497 538.578 658.241Z" fill="#263238"/>
<path d="M539.153 658.565C539.481 657.378 539.431 656.107 539.009 654.955C538.666 653.665 538.112 652.453 537.374 651.373C536.924 650.731 536.417 650.141 535.856 649.609C535.521 649.218 535.099 648.925 534.63 648.761C534.16 648.595 533.659 648.561 533.175 648.664C532.889 648.769 532.636 648.956 532.443 649.204C532.249 649.453 532.122 649.754 532.076 650.074C532.005 650.542 532.005 651.018 532.076 651.485C532.203 652.287 532.445 653.063 532.795 653.784C533.393 655.004 534.266 656.042 535.334 656.802C536.28 657.609 537.479 657.993 538.682 657.874C538.747 657.663 537.374 657.436 535.87 656.097C534.991 655.334 534.281 654.37 533.789 653.276C533.517 652.641 533.331 651.966 533.24 651.274C533.109 650.512 533.24 649.863 533.489 649.863C533.773 649.854 534.055 649.911 534.318 650.03C534.58 650.149 534.814 650.328 535.006 650.555C535.519 651.024 535.992 651.543 536.418 652.106C537.135 653.067 537.716 654.137 538.145 655.278C538.917 657.211 538.957 658.579 539.153 658.565Z" fill="#263238"/>
<path d="M429.115 640.906L432.176 698.139L361.539 699.14C361.854 692.258 398.166 677.985 398.166 677.985L396.322 640.906H429.115Z" fill="#A0A3BD"/>
<g opacity="0.6">
<path opacity="0.6" d="M432.177 698.198L431.902 692.373L364.234 695.504C364.234 695.504 361.108 696.914 361.5 699.199L432.177 698.198Z" fill="white"/>
</g>
<path d="M397.525 669.115C397.669 669.426 399.252 668.917 401.201 669.03C403.15 669.144 404.68 669.736 404.85 669.439C405.021 669.144 403.543 667.902 401.253 667.803C398.964 667.704 397.342 668.862 397.525 669.115Z" fill="#263238"/>
<path d="M399.081 660.568C400.245 660.866 401.46 660.842 402.613 660.497C403.882 660.246 405.12 659.838 406.303 659.284C406.998 658.959 407.67 658.582 408.317 658.156C408.71 657.932 409.068 657.642 409.376 657.296C409.608 657.055 409.75 656.731 409.774 656.385C409.799 656.039 409.703 655.695 409.507 655.42C409.324 655.174 409.09 654.975 408.826 654.841C408.56 654.706 408.27 654.639 407.976 654.644C407.535 654.646 407.094 654.712 406.669 654.841C405.919 655.039 405.189 655.308 404.484 655.646C403.306 656.203 402.216 656.955 401.253 657.874C399.631 659.439 399.095 660.766 399.213 660.836C399.331 660.906 400.155 659.835 401.829 658.536C402.793 657.776 403.844 657.151 404.955 656.675C405.613 656.395 406.291 656.174 406.983 656.013C407.728 655.801 408.291 655.787 408.565 656.125C408.631 656.252 408.644 656.295 408.487 656.52C408.26 656.772 408 656.986 407.716 657.154C407.114 657.56 406.495 657.932 405.857 658.269C404.768 658.853 403.629 659.326 402.457 659.679C401.313 659.886 400.185 660.183 399.081 660.568Z" fill="#263238"/>
<path d="M399.54 661.061C400.187 660.034 400.495 658.803 400.416 657.563C400.455 656.229 400.273 654.896 399.88 653.629C399.637 652.867 399.322 652.134 398.938 651.443C398.731 650.961 398.413 650.543 398.015 650.23C397.617 649.916 397.151 649.717 396.663 649.652C396.352 649.656 396.051 649.755 395.791 649.937C395.532 650.12 395.326 650.377 395.197 650.681C395.017 651.101 394.899 651.548 394.844 652.007C394.725 652.815 394.725 653.639 394.844 654.447C395.064 655.803 395.605 657.076 396.414 658.142C397.814 659.99 399.265 660.399 399.292 660.272C399.318 660.145 398.193 659.439 397.107 657.662C396.487 656.643 396.09 655.486 395.943 654.277C395.851 653.585 395.851 652.883 395.943 652.19C396.048 651.428 396.322 650.78 396.596 650.879C396.872 650.977 397.552 651.443 397.905 652.049C398.269 652.663 398.576 653.316 398.821 653.995C399.227 655.144 399.475 656.351 399.553 657.578C399.684 659.693 399.344 661.019 399.54 661.061Z" fill="#263238"/>
<path d="M409.926 410.041C409.926 410.041 382.364 554.704 382.364 559.64C382.364 564.576 392.999 671.511 392.999 671.511H433.406L424.16 555.706L456.952 458.742L453.682 410.041H409.926Z" fill="#211F54"/>
<path d="M450.358 434.864C451.013 439.687 532.232 665.488 532.232 665.488L572.351 650.214C571.972 650.214 526.052 517.742 526.052 517.742C526.052 517.742 524.583 447.094 520.686 412.041C518.234 389.973 499.792 376.967 499.792 376.967L446.29 407.459L450.358 434.864Z" fill="#211F54"/>
<path d="M386.484 273.755C386.224 275.165 410.435 364.476 410.435 364.476L412.242 396.671L408.788 412.042C408.788 412.042 436.938 415.709 458.011 416.725C479.085 417.74 500.898 380.404 500.898 380.404L490.152 282.669L452.216 235.321L437.658 240.033C437.658 240.033 429.325 270.722 405.073 258.959L401.803 260.977L386.484 273.755Z" fill="#0075FF"/>
<path d="M388.793 262.518L414.082 248.903L449.051 236.396C449.051 236.396 469.266 231.735 481.501 239.119C492.213 245.616 497.481 356.848 497.481 356.848L500.491 379.028L412.582 396.99L414.082 374.997C414.082 374.997 396.678 340.628 392.654 325.546C391.122 303.644 388.793 262.518 388.793 262.518Z" fill="#0075FF"/>
<path d="M489.029 272.029C488.956 272.089 488.877 272.138 488.793 272.176L488.108 272.538C487.508 272.854 486.631 273.272 485.536 273.766C479.805 276.324 473.797 278.093 467.656 279.03C466.479 279.207 465.523 279.327 464.857 279.382L464.098 279.44C464.009 279.46 463.918 279.467 463.827 279.46C463.913 279.431 464.001 279.41 464.091 279.399L464.845 279.278C465.503 279.187 466.463 279.032 467.625 278.828C470.674 278.294 473.695 277.591 476.677 276.724C479.652 275.84 482.584 274.791 485.459 273.578C486.561 273.113 487.451 272.723 488.065 272.442L488.774 272.13C488.856 272.086 488.941 272.053 489.029 272.029Z" fill="white"/>
<path d="M422.123 115.048C422.906 113.792 423.946 112.747 425.164 111.994C426.381 111.242 427.744 110.803 429.145 110.711C430.284 110.626 431.557 110.766 432.415 109.955C432.952 109.284 433.38 108.521 433.681 107.697C434.011 107.136 434.442 106.65 434.948 106.271C435.454 105.892 436.026 105.625 436.628 105.487C437.232 105.35 437.854 105.344 438.46 105.47C439.066 105.594 439.642 105.85 440.154 106.219C440.588 106.679 441.09 107.057 441.639 107.34C444.015 108.143 445.67 103.283 448.04 104.109C447.128 104.703 446.407 105.584 445.972 106.633C445.768 107.161 445.733 107.748 445.876 108.3C446.018 108.851 446.328 109.335 446.755 109.673C449.107 111.195 451.718 106.253 454.242 107.396C455.613 108.053 456.149 110.222 457.631 110.308C458.201 110.257 458.76 110.102 459.282 109.848C460.216 109.593 461.207 109.729 462.051 110.231C462.896 110.733 463.531 111.563 463.829 112.552C464.285 114.253 463.833 116.527 465.235 117.456C466.098 118.023 467.213 117.687 468.179 117.333C468.423 118.936 468.327 120.579 467.897 122.137C469.321 122.76 470.466 123.956 471.091 125.47C471.717 126.985 471.773 128.702 471.25 130.26C472.758 130.99 474.118 132.03 475.254 133.324C476.31 134.684 476.836 136.677 476.119 138.277C475.923 138.619 475.771 138.989 475.669 139.377C475.63 139.817 475.703 140.258 475.878 140.655C476.46 142.219 477.387 143.664 477.594 145.332C477.802 146.999 476.987 149.04 475.43 149.196C475.072 149.222 474.651 149.178 474.387 149.45C474.208 149.679 474.12 149.976 474.143 150.275C474.245 151.484 474.522 152.668 474.965 153.785C475.408 154.911 475.437 156.177 475.046 157.327C474.566 158.421 473.109 159.049 472.281 158.251C473.03 160.007 473.774 161.77 474.523 163.527C474.965 164.574 475.38 165.861 474.792 166.811C474.004 168.051 472.108 167.562 471.16 166.453C470.213 165.344 469.753 163.826 468.801 162.739C468.364 162.341 467.968 161.893 467.619 161.405C467.373 160.997 467.234 160.474 466.837 160.237C466.043 159.765 465.156 161.004 465.415 161.945C465.674 162.884 466.497 163.476 467.179 164.095C467.862 164.714 468.506 165.709 468.184 166.632C468.036 167.069 467.678 167.432 467.557 167.86C467.073 169.419 469.212 170.4 469.701 171.947C470.065 173.085 469.452 174.303 468.81 175.296C468.026 176.505 466.324 177.692 465.505 176.512C465.3 176.053 465.118 175.58 464.961 175.099C464.626 174.619 464.186 174.234 463.681 173.977C462.502 173.187 461.565 172.039 460.988 170.677C462.371 171.967 463.906 173.732 463.392 175.621C463.097 176.385 462.698 177.097 462.209 177.736C461.378 179.077 460.989 180.706 460.172 182.062C459.357 183.418 457.826 184.523 456.408 184.014C456.764 184.742 456.881 185.577 456.74 186.386C456.6 187.195 456.21 187.928 455.634 188.468C455.057 189.007 454.328 189.321 453.566 189.356C452.803 189.393 452.052 189.151 451.434 188.668C451.133 188.364 450.776 188.133 450.386 187.986C449.939 187.949 449.49 188.05 449.092 188.273C447.825 188.766 446.458 188.872 445.14 188.58C443.821 188.289 442.602 187.61 441.618 186.622L442.854 185.858C440.201 186.005 437.426 186.13 435.025 184.925C432.623 183.72 430.671 180.852 431.368 178.088C431.664 176.886 432.406 175.574 431.794 174.523C431.371 173.793 430.49 173.593 429.712 173.462L419.861 171.752C418.268 171.476 416.581 171.161 415.363 170.021C414.145 168.879 413.674 166.63 414.832 165.423C413.855 164.01 412.522 162.929 410.993 162.308C409.287 161.607 407.41 161.513 405.689 160.903C403.969 160.294 402.232 158.88 402.022 156.953C401.813 155.028 404.025 152.995 405.501 154.193C404.765 151.333 399.926 152.086 399.031 149.282C398.297 147 400.887 145.237 402.01 143.156C401.581 142.427 400.722 142.028 400.271 141.285C399.323 139.726 400.668 137.721 402.088 136.632C403.507 135.543 405.234 134.377 405.303 132.513C405.373 130.65 403.575 128.837 404.207 127.052C404.398 126.566 404.752 126.175 405.199 125.958C405.646 125.741 406.153 125.713 406.617 125.881C407.287 122.282 413.537 123.669 414.726 120.228C414.835 119.961 414.857 119.662 414.791 119.379C414.709 119.142 414.568 118.933 414.384 118.777C413.549 117.987 412.422 117.699 411.455 117.155C410.487 116.612 409.549 115.54 409.756 114.374C409.962 113.209 411.889 112.858 412.064 114.033C412.311 113.736 412.616 113.506 412.959 113.356C413.3 113.206 413.67 113.142 414.038 113.168C414.407 113.195 414.765 113.311 415.085 113.509C415.406 113.706 415.68 113.98 415.889 114.308C416.472 113.183 417.917 112.913 419.069 113.36C420.16 113.911 421.116 114.731 421.859 115.754" fill="#211F54"/>
<path d="M443.091 149.213C441.219 144.633 437.2 141.478 433.013 139.311C431.305 138.288 429.389 137.736 427.435 137.707C425.485 137.807 423.479 138.994 422.86 140.991L423.784 144.356C424.419 149.896 429.194 153.61 432.025 158.279C433.251 160.311 434.439 162.825 436.589 163.318C437.769 163.521 438.975 163.24 439.971 162.531C444.002 159.995 444.965 153.831 443.091 149.213Z" fill="#4B3CFB"/>
<path d="M448.355 174.302C449.323 171.897 449.476 169.202 448.788 166.686C448.099 164.172 446.613 161.998 444.588 160.545C445.922 157.589 444.467 153.883 442.075 151.848C439.683 149.812 436.597 149.054 433.621 148.357C430.632 141.364 421.933 138.03 415.513 141.407C410.841 136.657 403.138 137.574 397.506 140.9C396.188 141.82 394.755 142.533 393.25 143.017C392.109 143.187 390.958 143.274 389.806 143.277C383.488 143.852 378.374 149.949 377.256 156.666C377.146 157.754 376.903 158.822 376.537 159.842C375.97 161.134 374.894 162.076 374.047 163.167C373.13 164.366 372.464 165.762 372.093 167.264C371.722 168.764 371.656 170.334 371.899 171.865C372.321 174.453 373.644 176.996 373.105 179.565C372.842 180.848 372.126 182.014 371.985 183.32C371.574 187.112 375.941 189.874 376.019 193.676C376.068 194.435 375.864 195.21 375.821 195.976C375.737 197.587 376.199 199.176 377.121 200.447C377.827 201.414 378.811 202.223 379.121 203.403C379.247 204.327 379.266 205.264 379.175 206.193C379.21 208.475 385.303 215.852 387.303 216.622L439.716 204.652C441.594 203.701 443.153 202.143 444.175 200.193C445.196 198.245 445.629 196.001 445.415 193.775C445.246 193.052 445.267 192.293 445.479 191.585C445.799 191.052 446.216 190.596 446.706 190.243C449.669 187.491 449.057 182.405 447.857 178.383C447.66 177.831 447.55 177.247 447.534 176.656C447.662 175.821 447.941 175.022 448.355 174.302Z" fill="#211F54"/>
<path d="M433.386 177.958C431.493 167.935 423.332 157.852 413.136 155.163C406.67 153.473 402.175 154.528 399.047 154.87C394.679 155.451 390.578 157.449 387.286 160.6C384.553 162.024 376.126 174.973 377.901 186.437C379.87 199.157 382.744 214.605 386.139 223.616C392.964 241.727 406.851 240.772 406.851 240.772L412.014 272.365L443.97 239.869L433.386 177.958Z" fill="#FFBF9D"/>
<path d="M413.219 199.498C413.293 200.213 413.623 200.869 414.137 201.326C414.652 201.783 415.312 202.006 415.977 201.948C416.303 201.933 416.624 201.849 416.92 201.699C417.216 201.549 417.48 201.336 417.699 201.074C417.917 200.812 418.086 200.506 418.193 200.173C418.3 199.84 418.344 199.488 418.323 199.136C418.251 198.42 417.922 197.764 417.406 197.305C416.892 196.848 416.23 196.626 415.566 196.686C415.239 196.7 414.918 196.785 414.623 196.935C414.327 197.085 414.061 197.297 413.843 197.559C413.624 197.821 413.457 198.128 413.349 198.461C413.242 198.793 413.198 199.147 413.219 199.498Z" fill="#211F54"/>
<path d="M387.27 201.454C387.344 202.17 387.674 202.827 388.19 203.284C388.707 203.742 389.368 203.964 390.035 203.903C390.361 203.887 390.681 203.802 390.976 203.652C391.271 203.502 391.536 203.29 391.754 203.028C391.973 202.766 392.14 202.46 392.248 202.128C392.355 201.795 392.401 201.443 392.381 201.092C392.309 200.376 391.98 199.719 391.464 199.261C390.948 198.804 390.288 198.582 389.622 198.641C389.295 198.655 388.974 198.739 388.677 198.889C388.381 199.039 388.115 199.251 387.896 199.513C387.676 199.775 387.508 200.082 387.401 200.415C387.293 200.748 387.248 201.101 387.27 201.454Z" fill="#211F54"/>
<path d="M381.783 192.974C382.135 193.289 383.891 191.505 386.609 191.156C389.326 190.805 391.51 192.027 391.767 191.627C391.896 191.449 391.507 190.885 390.555 190.272C389.272 189.54 387.81 189.255 386.37 189.453C384.95 189.635 383.618 190.298 382.567 191.346C381.842 192.155 381.611 192.834 381.783 192.974Z" fill="#211F54"/>
<path d="M409.662 191.184C410.048 191.459 411.624 189.513 414.306 188.838C416.989 188.164 419.271 189.157 419.491 188.729C419.598 188.538 419.153 187.993 418.147 187.513C416.794 186.927 415.306 186.807 413.887 187.172C412.487 187.503 411.222 188.312 410.279 189.477C409.624 190.357 409.478 191.06 409.662 191.184Z" fill="#211F54"/>
<path d="M401.467 213.45C401.456 213.284 399.727 213.186 396.928 213.161C396.223 213.176 395.513 213.115 395.368 212.616C395.222 212.117 395.341 211.24 395.586 210.315C396.041 208.408 396.514 206.438 397.011 204.313C398.966 195.79 400.292 188.791 399.976 188.708C399.659 188.625 397.809 195.481 395.855 204.02C395.384 206.119 394.941 208.125 394.515 210.046C394.347 210.934 394.004 211.965 394.484 213.048C394.616 213.299 394.8 213.515 395.021 213.68C395.242 213.844 395.495 213.952 395.761 213.995C396.159 214.063 396.562 214.07 396.962 214.019C399.755 213.838 401.478 213.617 401.467 213.45Z" fill="#211F54"/>
<path d="M403.452 220.414C403.891 219.639 404.507 218.997 405.24 218.552C405.974 218.106 406.802 217.87 407.645 217.867C408.255 217.847 408.863 217.96 409.432 218.2C410.001 218.439 410.519 218.801 410.956 219.262C411.376 219.706 411.659 220.279 411.768 220.903C411.877 221.526 411.805 222.171 411.563 222.749C410.935 223.962 409.441 224.432 408.125 224.189C406.778 223.865 405.504 223.253 404.378 222.393C404.043 222.196 403.743 221.934 403.495 221.622C403.377 221.472 403.303 221.287 403.283 221.092C403.263 220.897 403.297 220.7 403.381 220.526" fill="#FF9A6C"/>
<path d="M409.745 214.449C409.303 214.482 409.652 217.677 407.362 220.279C405.073 222.88 401.885 222.938 401.914 223.393C401.927 223.597 402.69 223.92 404.058 223.787C405.802 223.587 407.424 222.731 408.641 221.37C409.807 220.061 410.454 218.313 410.444 216.497C410.37 215.148 409.948 214.404 409.745 214.449Z" fill="#211F54"/>
<path d="M406.286 179.84C406.715 180.57 409.318 179.536 412.557 179.178C415.797 178.819 418.544 179.13 418.816 178.325C418.932 177.935 418.333 177.303 417.142 176.791C415.573 176.191 413.899 175.985 412.246 176.185C410.592 176.386 409.003 176.992 407.598 177.952C406.546 178.732 406.095 179.498 406.286 179.84Z" fill="#211F54"/>
<path d="M381.349 180.198C381.905 180.804 383.715 179.868 385.975 179.537C388.235 179.207 390.207 179.446 390.574 178.688C390.727 178.319 390.354 177.692 389.444 177.167C388.239 176.53 386.879 176.315 385.555 176.553C384.227 176.756 382.988 177.394 382.009 178.382C381.292 179.205 381.106 179.928 381.349 180.198Z" fill="#211F54"/>
<path d="M406.863 240.756C415.131 238.827 422.739 234.463 428.844 228.149C428.844 228.149 425.483 242.97 407.636 245.587L406.863 240.756Z" fill="#894943"/>
<path d="M434.42 196.506C434.116 195.106 434.909 191.428 436.174 190.891C439.478 189.455 445.718 188.2 447.794 197.57C450.638 210.377 438.13 210.81 438.036 210.451C437.942 210.093 435.445 201.326 434.42 196.506Z" fill="#FFBF9D"/>
<path d="M440.232 204.91C440.278 204.853 440.472 205.006 440.866 205.09C441.407 205.192 441.963 205.063 442.418 204.729C443.563 203.882 444.143 201.485 443.688 199.167C443.474 198.059 443.033 197.017 442.396 196.119C442.196 195.747 441.916 195.435 441.578 195.206C441.241 194.979 440.857 194.842 440.461 194.81C440.208 194.804 439.961 194.892 439.762 195.062C439.564 195.231 439.428 195.47 439.376 195.737C439.296 196.132 439.418 196.373 439.37 196.408C439.324 196.441 439.072 196.263 439.047 195.671C439.04 195.335 439.141 195.007 439.333 194.743C439.601 194.394 439.984 194.171 440.402 194.122C440.913 194.099 441.421 194.219 441.878 194.468C442.334 194.718 442.723 195.089 443.008 195.547C443.759 196.527 444.276 197.691 444.513 198.937C445.015 201.533 444.324 204.282 442.726 205.247C442.429 205.427 442.099 205.534 441.758 205.559C441.417 205.585 441.077 205.528 440.759 205.395C440.322 205.2 440.199 204.942 440.232 204.91Z" fill="#894943"/>
<path d="M375.298 187.258C377.35 185.032 378.412 182.455 377.618 179.468C379.32 179.584 380.465 176.97 381.074 175.248C381.682 173.527 382.661 172.494 382.193 170.724C382.079 170.379 382.054 170.007 382.122 169.648C382.257 169.098 382.773 168.792 383.242 168.505C384.415 167.745 385.393 166.68 386.086 165.408C386.779 164.136 387.166 162.697 387.212 161.223C390.026 161.782 392.925 161.582 395.65 160.64C396.478 161.451 397.484 162.022 398.572 162.3C399.66 162.579 400.797 162.555 401.874 162.232C402.952 161.909 403.937 161.297 404.735 160.452C405.534 159.608 406.122 158.56 406.444 157.405C407.015 158.084 407.716 158.623 408.497 158.985C409.278 159.348 410.123 159.527 410.973 159.508C412.672 159.458 414.355 159.142 415.969 158.568C416.044 160.38 416.719 162.103 417.871 163.426C419.023 164.748 420.576 165.582 422.249 165.778C422.476 165.755 422.704 165.781 422.921 165.856C423.138 165.929 423.34 166.049 423.513 166.208C423.724 166.665 423.758 167.194 423.608 167.678C423.542 168.472 423.625 169.272 423.851 170.03C424.078 170.789 424.444 171.491 424.926 172.094C425.41 172.697 426.001 173.188 426.664 173.541C427.328 173.892 428.05 174.096 428.787 174.14C428.428 174.686 428.188 175.312 428.086 175.971C427.983 176.631 428.02 177.307 428.194 177.949C428.368 178.591 428.674 179.182 429.091 179.678C429.507 180.174 430.022 180.562 430.598 180.813C431.096 180.988 431.73 181.184 431.781 181.744C431.782 181.958 431.732 182.168 431.637 182.356C431.028 183.848 430.426 185.455 430.671 187.066C430.917 188.677 432.287 190.204 433.763 189.878C433.421 190.317 433.163 190.825 433.007 191.374C432.85 191.922 432.799 192.499 432.854 193.069C433.075 194.187 434.396 195.063 435.244 194.412C435.621 194.14 441.27 191.399 441.454 190.96C443.756 185.188 438.359 180.805 436.711 174.777C434.948 168.749 431.912 163.243 427.842 158.693C426.209 156.729 424.342 155.005 422.291 153.567C419.869 152.076 417.299 150.883 414.629 150.011C411.193 148.746 407.665 147.49 404.035 147.489C397.267 147.458 391.132 151.645 385.787 156.122C383.694 157.759 381.817 159.693 380.206 161.873C378.454 164.615 377.17 167.673 376.413 170.901C375.165 175.511 374.348 180.347 374.925 185.109" fill="#211F54"/>
<path d="M372.002 183.356C372.041 182.824 372.156 182.3 372.346 181.807C372.506 181.316 372.757 180.733 372.937 180.011C373.157 179.179 373.209 178.304 373.087 177.449C372.929 176.375 372.686 175.319 372.361 174.29C371.962 173.052 371.718 171.761 371.639 170.454C371.587 168.94 371.826 167.432 372.339 166.021C372.618 165.254 372.978 164.524 373.413 163.847C373.883 163.144 374.405 162.483 374.973 161.871C375.56 161.248 376.05 160.527 376.424 159.736C376.735 158.872 376.939 157.968 377.034 157.048C377.666 152.887 379.662 149.108 382.657 146.397C383.464 145.672 384.342 145.044 385.276 144.525C386.242 144.001 387.266 143.611 388.322 143.366C388.86 143.244 389.404 143.158 389.951 143.106C390.507 143.064 391.054 143.023 391.595 142.982C392.696 142.966 393.782 142.701 394.78 142.201C395.8 141.705 396.752 141.032 397.788 140.451C398.827 139.863 399.91 139.369 401.025 138.973C402.157 138.567 403.319 138.266 404.499 138.072C405.703 137.885 406.923 137.826 408.139 137.897C410.651 138.018 413.064 138.99 415.035 140.674L415.613 141.193L415.406 141.164C418.73 139.582 422.491 139.438 425.91 140.762C429.33 142.086 432.147 144.776 433.779 148.276L433.658 148.172C435.242 148.51 436.805 148.957 438.336 149.51C439.832 150.043 441.224 150.871 442.442 151.948C443.601 153.026 444.464 154.425 444.937 155.995C445.41 157.496 445.336 159.136 444.726 160.579L444.669 160.371C446.646 161.759 448.111 163.85 448.81 166.279C449.484 168.441 449.527 170.775 448.933 172.964C448.792 173.464 448.618 173.954 448.413 174.427C448.21 174.892 447.991 175.327 447.837 175.78C447.682 176.212 447.63 176.68 447.685 177.139C447.753 177.59 447.859 178.034 448.003 178.464C448.48 180.055 448.787 181.701 448.915 183.367C449.03 184.713 448.901 186.071 448.532 187.364C448.252 188.316 447.772 189.186 447.129 189.906C446.609 190.494 446.099 190.799 445.85 191.106C445.718 191.26 445.598 191.427 445.494 191.605C445.565 191.408 445.674 191.229 445.813 191.079C446.06 190.748 446.562 190.421 447.061 189.835C447.679 189.117 448.141 188.257 448.409 187.32C448.751 186.042 448.863 184.705 448.739 183.38C448.602 181.73 448.286 180.104 447.796 178.533C447.651 178.089 447.538 177.634 447.461 177.172C447.403 176.674 447.458 176.168 447.62 175.698C447.791 175.226 447.986 174.764 448.201 174.313C448.398 173.851 448.564 173.373 448.694 172.883C449.262 170.748 449.212 168.478 448.547 166.376C447.857 164.019 446.428 161.994 444.504 160.65L444.386 160.575L444.448 160.441C445.029 159.061 445.094 157.493 444.63 156.063C444.171 154.558 443.339 153.218 442.225 152.187C441.033 151.144 439.678 150.344 438.222 149.823C436.701 149.284 435.151 148.844 433.581 148.505L433.496 148.511L433.491 148.42C431.882 145.034 429.134 142.439 425.808 141.167C422.482 139.894 418.831 140.04 415.602 141.575L415.493 141.629L415.395 141.546L414.84 141.039C412.924 139.411 410.584 138.472 408.147 138.353C406.957 138.281 405.764 138.336 404.584 138.515C403.422 138.706 402.276 139.001 401.159 139.397C400.064 139.788 399 140.274 397.976 140.848C396.959 141.405 395.994 142.087 394.946 142.599C394.428 142.863 393.885 143.064 393.326 143.201C392.77 143.324 392.205 143.394 391.637 143.413C391.083 143.454 390.539 143.45 389.997 143.491C389.464 143.542 388.934 143.628 388.411 143.748C387.384 143.988 386.388 144.362 385.446 144.862C384.535 145.37 383.678 145.981 382.887 146.685C379.942 149.336 377.973 153.037 377.334 157.117C377.235 158.065 377.02 158.996 376.695 159.883C376.303 160.699 375.793 161.441 375.185 162.084C374.623 162.683 374.107 163.33 373.644 164.02C373.213 164.679 372.856 165.391 372.581 166.141C372.07 167.515 371.826 168.987 371.865 170.466C371.936 171.746 372.166 173.009 372.546 174.222C372.868 175.265 373.105 176.335 373.256 177.42C373.368 178.299 373.301 179.192 373.058 180.04C372.844 180.764 372.585 181.347 372.418 181.824C372.28 182.186 372.167 182.558 372.08 182.939C372.057 183.222 372.009 183.355 372.002 183.356Z" fill="#4A4566"/>
<path d="M409.332 139.969C409.332 139.969 408.979 139.851 408.331 139.686C407.426 139.461 406.491 139.403 405.566 139.515C404.207 139.672 402.912 140.216 401.813 141.092C400.467 142.185 399.477 143.71 398.987 145.447C398.841 145.967 398.749 146.503 398.71 147.044C398.676 147.282 398.691 147.526 398.755 147.756C398.819 147.987 398.93 148.2 399.079 148.38L399.462 148.739L398.952 148.709C397.622 148.647 396.323 149.149 395.335 150.109C394.554 150.864 394.023 151.871 393.819 152.979C393.68 153.715 393.675 154.473 393.801 155.213C393.868 155.477 393.924 155.744 393.966 156.015C393.928 155.955 393.895 155.891 393.869 155.824C393.795 155.635 393.733 155.441 393.683 155.244C393.508 154.5 393.477 153.725 393.592 152.967C393.776 151.787 394.314 150.706 395.122 149.889C396.156 148.859 397.524 148.313 398.93 148.368L398.803 148.705C398.612 148.489 398.468 148.23 398.381 147.947C398.294 147.664 398.267 147.363 398.301 147.067C398.343 146.495 398.441 145.929 398.594 145.378C399.106 143.558 400.15 141.964 401.569 140.836C402.538 140.084 403.652 139.578 404.829 139.358C406.005 139.137 407.212 139.207 408.359 139.563C408.606 139.642 408.848 139.738 409.085 139.85C409.257 139.906 409.338 139.953 409.332 139.969Z" fill="#4A4566"/>
<path d="M431.779 149.921C431.703 150.126 431.596 150.317 431.463 150.485C431.131 150.976 430.751 151.426 430.327 151.827C429.691 152.446 428.938 152.907 428.12 153.182C427.076 153.537 425.945 153.453 424.955 152.948L425.21 152.845C425.138 153.041 425.052 153.246 424.974 153.456C424.895 153.668 424.774 153.86 424.673 154.058C424.051 155.185 423.174 156.126 422.125 156.794C421.282 157.347 420.346 157.715 419.37 157.877C418.717 157.982 418.053 157.983 417.401 157.881C417.151 157.855 416.908 157.786 416.681 157.676C417.556 157.769 418.44 157.744 419.31 157.599C420.24 157.404 421.127 157.026 421.929 156.481C422.913 155.828 423.738 154.93 424.336 153.862C424.436 153.665 424.537 153.482 424.624 153.285C424.71 153.088 424.776 152.901 424.848 152.712L424.926 152.508L425.102 152.602C426.009 153.055 427.04 153.134 427.998 152.825C428.784 152.584 429.515 152.169 430.144 151.605C431.248 150.661 431.727 149.879 431.779 149.921Z" fill="#4A4566"/>
<path d="M440.6 160.251C440.6 160.251 440.605 160.334 440.617 160.501C440.605 160.733 440.56 160.963 440.483 161.181C440.176 161.995 439.596 162.655 438.859 163.032C437.756 163.542 436.54 163.697 435.357 163.479C434.702 163.392 434.026 163.313 433.309 163.146C432.535 163.006 431.832 162.576 431.323 161.933L431.204 161.743L431.503 161.767C430.644 162.983 429.617 164.048 428.459 164.928C427.497 165.65 426.366 166.065 425.196 166.126C424.412 166.178 423.628 166.006 422.925 165.627C422.733 165.529 422.554 165.404 422.392 165.256C422.28 165.158 422.226 165.101 422.233 165.092C422.24 165.085 422.491 165.263 422.965 165.487C423.661 165.797 424.415 165.923 425.164 165.855C426.277 165.751 427.344 165.328 428.256 164.631C429.369 163.752 430.359 162.706 431.197 161.523L431.353 161.313L431.503 161.546L431.597 161.699C432.058 162.265 432.686 162.643 433.376 162.768C434.036 162.92 434.704 163.035 435.375 163.112C436.493 163.34 437.648 163.227 438.709 162.784C439.407 162.456 439.976 161.874 440.319 161.14C440.439 160.855 440.534 160.557 440.6 160.251Z" fill="#4A4566"/>
<path d="M443.59 111.29C443.59 111.29 443.389 111.351 443.048 111.537C442.565 111.824 442.17 112.259 441.915 112.786C441.516 113.61 441.385 114.552 441.544 115.464C441.782 116.651 442.182 117.794 442.732 118.856L442.821 119.046L442.625 119.061C441.142 119.381 439.797 120.216 438.795 121.436C438.227 122.11 437.814 122.92 437.589 123.797C437.364 124.675 437.333 125.598 437.499 126.491C437.635 127.308 437.945 128.08 438.403 128.747C438.862 129.414 439.457 129.958 440.143 130.335L440.61 130.574L440.102 130.697C439.259 130.911 438.467 131.309 437.775 131.869C437.082 132.428 436.503 133.136 436.076 133.948C435.393 135.257 435.149 136.782 435.388 138.264C435.545 139.24 435.886 140.17 436.392 140.997C436.754 141.579 437.012 141.85 436.985 141.866C436.957 141.884 436.911 141.811 436.789 141.683C436.607 141.498 436.443 141.294 436.298 141.073C435.588 140.031 435.168 138.794 435.084 137.505C435.001 136.217 435.258 134.929 435.825 133.79C436.269 132.924 436.877 132.167 437.61 131.568C438.343 130.971 439.183 130.544 440.078 130.317L440.038 130.678C439.299 130.277 438.657 129.696 438.163 128.982C437.668 128.266 437.333 127.438 437.186 126.56C436.994 125.588 437.033 124.58 437.299 123.628C437.552 122.726 437.979 121.891 438.553 121.18C439.612 119.907 441.03 119.045 442.589 118.729L442.477 118.966C441.92 117.875 441.526 116.698 441.311 115.475C441.166 114.506 441.331 113.513 441.778 112.66C442.06 112.112 442.498 111.677 443.026 111.416C443.161 111.346 443.306 111.296 443.454 111.269C443.5 111.269 443.546 111.275 443.59 111.29Z" fill="#4A4566"/>
<path d="M470.753 133.83C470.753 133.83 470.701 133.903 470.587 134.003C470.419 134.162 470.242 134.309 470.058 134.447C469.357 134.956 468.591 135.353 467.782 135.623C466.543 136.051 465.236 136.201 463.941 136.065C462.275 135.915 460.679 135.28 459.323 134.228L459.586 134.14C459.246 135.328 458.665 136.418 457.885 137.333C457.105 138.249 456.145 138.964 455.076 139.43C453.92 139.899 452.656 139.966 451.462 139.62C450.269 139.275 449.207 138.534 448.426 137.501L448.73 137.41C448.619 138.331 448.286 139.204 447.764 139.942C447.289 140.594 446.714 141.152 446.063 141.594C444.982 142.292 443.777 142.739 442.526 142.904C441.722 143.024 440.911 143.085 440.101 143.086C439.812 143.102 439.523 143.09 439.237 143.052C439.523 143.004 439.812 142.983 440.101 142.987C440.905 142.942 441.704 142.849 442.498 142.707C443.721 142.522 444.894 142.063 445.943 141.359C446.602 140.93 447.166 140.349 447.595 139.659C448.024 138.969 448.306 138.186 448.424 137.365L448.471 136.904L448.728 137.273C449.467 138.238 450.466 138.932 451.588 139.257C452.709 139.582 453.896 139.522 454.984 139.086C456.001 138.64 456.915 137.958 457.66 137.088C458.405 136.219 458.965 135.183 459.298 134.055L459.374 133.812L459.566 133.958C460.869 134.984 462.402 135.615 464.008 135.786C465.266 135.933 466.54 135.813 467.756 135.435C468.825 135.069 469.836 134.528 470.753 133.83Z" fill="#4A4566"/>
<path d="M462.276 155.7C462.276 155.7 462.283 155.799 462.188 155.966C462.037 156.191 461.827 156.361 461.583 156.453C460.703 156.766 459.763 156.837 458.849 156.66C457.487 156.423 456.227 155.733 455.246 154.684C454.044 153.382 453.34 151.637 453.277 149.8L453.274 149.754L453.581 149.906C452.261 151.043 450.642 151.698 448.956 151.778C447.595 151.848 446.237 151.58 444.985 150.996C444.147 150.608 443.361 150.096 442.655 149.474C442.388 149.273 442.147 149.034 441.938 148.766C442.909 149.566 443.965 150.238 445.084 150.768C446.308 151.297 447.625 151.528 448.941 151.444C450.552 151.334 452.089 150.686 453.341 149.589L453.621 149.34L453.651 149.779C453.713 151.516 454.369 153.167 455.491 154.415C456.415 155.429 457.606 156.112 458.902 156.373C459.774 156.573 460.676 156.557 461.54 156.327C461.85 156.226 462.113 156.001 462.276 155.7Z" fill="#4A4566"/>
<path d="M417.673 118.201C417.543 119.568 417.647 120.949 417.98 122.275C418.39 123.864 419.204 125.297 420.33 126.414C421.456 127.53 422.848 128.286 424.35 128.595C425.299 128.802 426.273 128.833 427.23 128.683L427.463 128.665L427.479 128.907C427.378 130.341 427.53 131.78 427.923 133.153C428.242 134.248 428.705 135.288 429.296 136.241C429.516 136.602 429.76 136.944 430.027 137.266C430.115 137.383 430.227 137.476 430.354 137.54C430.479 137.604 430.617 137.638 430.757 137.638C430.845 137.63 430.931 137.602 431.007 137.554C431.083 137.505 431.149 137.439 431.198 137.361C431.268 137.25 431.263 137.166 431.278 137.172C431.292 137.179 431.283 137.256 431.257 137.394C431.209 137.492 431.141 137.577 431.058 137.641C430.975 137.705 430.88 137.748 430.779 137.766C430.614 137.788 430.448 137.766 430.292 137.704C430.138 137.641 429.999 137.539 429.888 137.407C429.604 137.09 429.345 136.747 429.115 136.383C428.479 135.428 427.98 134.374 427.633 133.259C427.205 131.845 427.034 130.356 427.13 128.873L427.335 129.078C426.333 129.247 425.313 129.221 424.32 129.001C422.757 128.683 421.31 127.891 420.149 126.717C418.988 125.543 418.162 124.037 417.767 122.375C417.529 121.388 417.446 120.364 417.522 119.347C417.547 119.071 417.588 118.795 417.645 118.523C417.637 118.296 417.659 118.202 417.673 118.201Z" fill="#4A4566"/>
<path d="M445.389 211.344C445.443 212.183 445.264 213.02 444.875 213.75C444.487 214.479 443.907 215.068 443.209 215.443C442.51 215.817 441.724 215.96 440.95 215.853C440.177 215.746 439.45 215.393 438.861 214.841C438.274 214.289 437.85 213.56 437.646 212.749C437.441 211.937 437.464 211.078 437.712 210.282C437.959 209.484 438.422 208.784 439.038 208.269C439.655 207.755 440.4 207.448 441.178 207.39C441.695 207.351 442.214 207.422 442.707 207.599C443.198 207.778 443.653 208.058 444.044 208.426C444.436 208.793 444.756 209.239 444.986 209.74C445.217 210.241 445.354 210.786 445.389 211.344Z" fill="#4B3CFB"/>
<path d="M475.372 324.664C475.31 324.692 475.245 324.709 475.178 324.714L474.61 324.829L472.398 325.217C470.479 325.546 467.703 325.997 464.266 326.541C457.392 327.615 447.875 330.063 437.338 331.349C426.8 332.634 417.244 332.484 410.32 333.113C406.861 333.416 404.057 333.643 402.119 333.781L399.886 333.95L399.308 333.993C399.243 334.009 399.177 334.014 399.111 334.008C399.176 333.994 399.242 333.989 399.308 333.993L399.886 333.95L402.115 333.725L410.309 332.936C417.222 332.259 426.775 332.352 437.307 331.066C447.837 329.782 457.356 327.374 464.236 326.372L472.388 325.167L474.606 324.851L475.183 324.807L475.372 324.664Z" fill="white"/>
<g opacity="0.3">
<path opacity="0.3" d="M462.892 268.728L473.709 314.734L479.033 315.707L481.571 335.411L434.61 411.006H455.998L460.629 397.467L499.206 369.706V363.181L484.41 305.877L477.346 309.827L462.892 268.728Z" fill="black"/>
</g>
<path d="M388.872 262.491C380.109 270.975 376.112 279.963 371.825 290.259C364.063 309.482 362.184 316.717 362.184 316.717L395.459 333.912L393.33 320.98L388.872 262.491Z" fill="#0075FF"/>
<path d="M357.906 265.154L348.459 325.741L371.971 340.136L376.18 264.787L357.906 265.154Z" fill="#FFBF9D"/>
<path d="M348.459 325.741C348.459 325.741 344.497 348.124 361.352 355.618C373.871 361.191 387.93 349.01 391.528 331.683L373.152 322.477L348.459 325.741Z" fill="#FFBF9D"/>
<path d="M373.027 317.868C373.26 319.087 373.374 320.327 373.367 321.571C373.572 327.576 373.02 333.584 371.726 339.429C371.508 340.652 371.171 341.847 370.718 342.993C370.844 341.759 371.039 340.535 371.304 339.327C371.703 337.078 372.184 333.969 372.476 330.481C372.769 326.993 372.898 323.859 372.909 321.635C372.866 320.377 372.905 319.119 373.027 317.868Z" fill="#FF9A6C"/>
<path d="M376.168 265.142C376.286 264.662 381.408 244.353 381.408 244.353L378.536 224.435C378.536 224.435 377.997 218.545 375.02 219.683C372.043 220.82 373.004 227.265 373.004 227.265L362.525 239.361L359.829 237.54C358.035 239.61 356.973 242.294 356.828 245.123C356.828 249.319 357.859 265.18 357.859 265.18" fill="#FFBF9D"/>
<path d="M357.905 265.142C357.865 264.972 357.842 264.798 357.835 264.624L357.717 263.094C357.624 261.691 357.495 259.732 357.343 257.293C357.19 254.854 357.014 251.745 356.816 248.295C356.816 247.423 356.709 246.525 356.663 245.616C356.591 244.644 356.67 243.666 356.897 242.721C357.414 240.704 358.365 238.846 359.675 237.3L359.828 237.123L360.015 237.25L362.722 239.069H362.371L372.827 226.962L372.745 227.228C372.546 225.777 372.546 224.304 372.745 222.855C372.851 222.09 373.089 221.351 373.448 220.681C373.841 219.983 374.465 219.472 375.194 219.253C375.566 219.145 375.957 219.15 376.326 219.269C376.694 219.387 377.025 219.614 377.281 219.923C377.746 220.485 378.094 221.149 378.301 221.869C378.655 223.221 378.902 224.604 379.039 226.002C379.239 227.341 379.425 228.668 379.613 229.957C380.34 235.152 381.02 239.967 381.629 244.251V244.364L377.715 259.531C377.246 261.283 376.855 262.673 376.543 263.701C376.425 264.144 376.32 264.497 376.238 264.787C376.208 264.911 376.164 265.03 376.109 265.142C376.108 265.013 376.127 264.884 376.167 264.762C376.167 264.472 376.308 264.106 376.401 263.663C376.648 262.626 376.977 261.224 377.398 259.454C378.301 255.764 379.567 250.608 381.114 244.289V244.402C380.481 240.119 379.778 235.304 379.016 230.109C378.828 228.845 378.629 227.48 378.429 226.14C378.302 224.789 378.058 223.452 377.703 222.147C377.521 221.516 377.223 220.931 376.824 220.429C376.639 220.203 376.399 220.04 376.131 219.957C375.863 219.874 375.579 219.875 375.312 219.961C374.739 220.208 374.245 220.631 373.891 221.176C373.537 221.721 373.339 222.366 373.319 223.031C373.125 224.41 373.125 225.811 373.319 227.19V227.353L373.226 227.468L362.734 239.537L362.571 239.727L362.383 239.587L359.687 237.768H360.015C358.762 239.24 357.844 241.005 357.331 242.924C357.041 244.715 357.001 246.542 357.213 248.346C357.366 251.796 357.506 254.817 357.612 257.331C357.717 259.847 357.788 261.742 357.835 263.145C357.835 263.777 357.835 264.282 357.835 264.687C357.874 264.835 357.897 264.988 357.905 265.142Z" fill="#FF9A6C"/>
<path d="M361.646 242.241C362.191 242.471 362.747 242.669 363.311 242.836C363.311 242.836 362.736 248.434 364.306 248.649C368.198 249.192 368.093 243.682 368.093 243.682C368.093 243.682 368.726 247.158 370.73 247.133C372.734 247.106 374.036 246.563 373.661 242.608L372.992 235.429C372.882 234.69 372.518 234.022 371.972 233.559L370.144 232.168L374.598 233.268C374.598 233.268 376.544 237.06 378.572 235.973C379.007 235.706 379.338 235.281 379.506 234.772C379.674 234.265 379.667 233.708 379.487 233.205C379.027 231.624 378.368 230.118 377.529 228.731C376.357 227.278 370.109 224.434 368.726 225.079C367.343 225.723 366.522 230.007 366.522 230.007C366.522 230.007 363.381 230.513 362.56 235.062C361.114 235.914 359.901 237.161 359.044 238.677" fill="#FFBF9D"/>
<path d="M359.054 238.728C359.054 238.728 359.054 238.614 359.195 238.412C359.355 238.112 359.535 237.824 359.734 237.553C360.486 236.498 361.427 235.617 362.5 234.962L362.419 235.076C362.578 233.997 362.95 232.966 363.508 232.055C364.198 230.918 365.263 230.105 366.486 229.781L366.31 229.97C366.502 228.982 366.773 228.014 367.119 227.075C367.302 226.564 367.538 226.076 367.823 225.622C367.981 225.368 368.185 225.149 368.42 224.978C368.673 224.799 368.973 224.71 369.275 224.725C370.377 224.81 371.46 225.074 372.487 225.509C373.568 225.924 374.622 226.418 375.641 226.987C376.182 227.281 376.7 227.624 377.188 228.011C377.693 228.437 378.094 228.987 378.36 229.616C378.948 230.831 379.434 232.1 379.814 233.408C379.898 233.793 379.903 234.193 379.825 234.58C379.748 234.967 379.592 235.331 379.368 235.644C379.132 235.967 378.817 236.214 378.459 236.356C378.102 236.499 377.715 236.533 377.34 236.453C376.64 236.225 376.013 235.787 375.535 235.189C375.053 234.645 374.635 234.038 374.293 233.383L374.491 233.546L373.706 233.356L370.037 232.447L370.283 231.853L372.112 233.256C372.468 233.625 372.768 234.052 373.003 234.519C373.113 234.771 373.184 235.04 373.214 235.316V236.049C373.308 237.01 373.39 237.958 373.472 238.892C373.554 239.827 373.648 240.75 373.73 241.647C373.834 242.552 373.873 243.466 373.847 244.377C373.868 244.862 373.78 245.346 373.59 245.785C373.4 246.226 373.115 246.609 372.757 246.905C372.032 247.295 371.218 247.452 370.413 247.36C370.014 247.292 369.635 247.122 369.309 246.865C368.983 246.608 368.719 246.271 368.537 245.882C368.173 245.206 367.911 244.472 367.763 243.708H368.232C368.295 245.305 367.783 246.867 366.802 248.068C366.31 248.563 365.67 248.854 364.997 248.889C364.69 248.933 364.378 248.933 364.071 248.889C363.931 248.799 363.809 248.678 363.714 248.534C363.619 248.391 363.553 248.227 363.52 248.055C363.197 247.066 363.062 246.018 363.122 244.971C363.13 244.236 363.177 243.501 363.262 242.773L363.333 242.873L362.078 242.38C361.943 242.334 361.813 242.271 361.692 242.191C361.837 242.201 361.979 242.236 362.114 242.292L363.368 242.696H363.438V242.773C363.404 243.496 363.404 244.222 363.438 244.946C363.412 245.941 363.563 246.932 363.884 247.866C364.012 248.08 364.154 248.321 364.365 248.358C364.629 248.391 364.897 248.391 365.162 248.358C365.747 248.317 366.3 248.053 366.72 247.613C367.599 246.49 368.043 245.047 367.963 243.581V241.445L368.408 243.531C368.551 244.229 368.797 244.899 369.135 245.515C369.275 245.838 369.484 246.121 369.744 246.341C370.005 246.56 370.311 246.71 370.636 246.778C371.345 246.853 372.059 246.713 372.698 246.374C372.974 246.128 373.192 245.816 373.335 245.462C373.477 245.109 373.54 244.724 373.518 244.339C373.535 243.46 373.487 242.582 373.378 241.71C373.297 240.813 373.202 239.891 373.12 238.956L372.851 236.112L372.78 235.392C372.761 235.185 372.71 234.985 372.628 234.797C372.413 234.399 372.145 234.037 371.831 233.723L370.002 232.333L368.748 231.373L370.248 231.74L373.917 232.649L374.691 232.838H374.82L374.89 232.965C375.443 234.181 376.383 235.141 377.54 235.67C377.803 235.728 378.077 235.706 378.33 235.606C378.583 235.505 378.804 235.33 378.969 235.101C379.137 234.863 379.254 234.587 379.312 234.294C379.368 234.001 379.363 233.698 379.298 233.408C378.937 232.153 378.475 230.934 377.914 229.767C377.685 229.211 377.33 228.725 376.883 228.353C376.417 227.99 375.928 227.665 375.418 227.38C374.42 226.82 373.391 226.33 372.335 225.913C371.373 225.492 370.357 225.228 369.323 225.129C369.106 225.122 368.891 225.18 368.703 225.295C368.514 225.411 368.36 225.581 368.256 225.787C367.981 226.201 367.756 226.651 367.588 227.126C367.244 228.032 366.969 228.966 366.767 229.919V230.071H366.627C365.507 230.359 364.528 231.089 363.884 232.118C363.334 232.978 362.955 233.95 362.77 234.974V235.051C361.714 235.658 360.772 236.473 359.992 237.451C359.312 238.336 359.089 238.753 359.054 238.728Z" fill="#FF9A6C"/>
<path d="M362.267 235.417C362.267 235.329 362.876 235.227 363.826 235.417C365.076 235.765 366.184 236.548 366.979 237.645C367.774 238.742 368.211 240.091 368.222 241.483C368.222 242.545 367.987 243.151 367.916 243.126C367.84 242.591 367.797 242.05 367.788 241.509C367.648 240.256 367.203 239.066 366.498 238.058C365.767 237.067 364.799 236.311 363.696 235.872C363.212 235.752 362.734 235.6 362.267 235.417Z" fill="#FF9A6C"/>
<path d="M515.397 701.203C507.307 701.069 499.28 699.643 491.577 696.972C474.964 691.486 462.721 679.102 455.186 660.189C448.828 644.223 447.01 626.34 446.2 614.296C444.381 587.499 459.764 505.076 462.865 489.957C465.245 478.377 466.71 448.59 456.049 430.509C454.235 427.189 451.801 424.313 448.9 422.062C445.999 419.811 442.697 418.235 439.201 417.435C412.084 411.314 385.203 447.885 382.952 450.987L323.774 566.78L316.776 562.379L376.215 446.065L376.373 445.84C377.681 444.021 407.623 401.3 440.784 408.76C449.941 410.834 457.396 416.532 462.799 425.685C474.415 445.431 473.813 476.741 470.647 491.874C465.886 515.09 452.57 590.15 454.153 613.619C455.984 640.726 462.093 677.989 493.814 688.468C526.948 699.398 540.108 685.647 549.853 671.825C560.736 656.41 567.46 648.638 576.25 646.128C589.685 642.306 598.279 648.047 603.655 653.251L598.227 661.29C597.977 660.853 589.2 651.6 578.291 654.703C571.75 656.55 565.772 663.744 556.236 677.269C547.603 689.553 535.974 701.203 515.397 701.203Z" fill="#4A4566"/>
<path d="M267.713 675.404L260.1 670.664L318.076 560.655L325.675 565.394L267.713 675.404Z" fill="#DCDDEB"/>
<path d="M213.318 681.598C213.318 681.598 209.277 681.965 207.929 683.248C206.582 684.532 195.123 709.326 195.123 709.326V717.224H227.014L234.589 694.996L235.177 685.688C235.211 685.167 235.146 684.645 234.986 684.152C234.825 683.66 234.573 683.208 234.244 682.825C233.916 682.442 233.518 682.136 233.076 681.925C232.633 681.713 232.155 681.602 231.672 681.598H213.318Z" fill="#0075FF"/>
<path d="M265.512 653.799L256.434 673.346L244.02 680.398L250.783 692.274L261.024 686.039C263.943 684.241 266.333 681.591 267.919 678.395L276.722 660.654L265.512 653.799Z" fill="#4A4566"/>
<path d="M209.656 690.877H231.763V704.206H245.328C245.328 704.206 249.056 703.36 249.959 700.553C250.573 697.847 250.889 695.073 250.901 692.288L244.02 680.398L236.393 684.629H217.727C216.325 684.628 214.947 685.016 213.725 685.757C212.504 686.499 211.481 687.567 210.755 688.861L209.656 690.877Z" fill="#1D53BB"/>
<path d="M209.656 690.878V690.764C209.713 690.632 209.778 690.505 209.853 690.384L210.637 688.888C211.068 688.093 211.611 687.374 212.246 686.759C213.109 685.917 214.131 685.287 215.242 684.911C215.888 684.677 216.561 684.539 217.243 684.502C217.95 684.502 218.682 684.502 219.454 684.502H224.438H236.355L244.033 680.271L244.151 680.201V680.328L250.913 692.189C250.896 694.167 250.751 696.141 250.482 698.099C250.384 698.853 250.23 699.599 250.024 700.327C249.801 701.068 249.41 701.737 248.886 702.273C247.882 703.284 246.658 704.007 245.328 704.375H231.619V704.22C231.619 699.41 231.619 694.94 231.619 690.891L231.737 691.033L215.569 690.948H211.16H215.621L231.684 690.863H231.802V690.991C231.802 695.038 231.802 699.453 231.802 704.318L231.658 704.163H245.132C246.432 703.851 247.637 703.192 248.637 702.245C249.549 701.151 250.08 699.751 250.142 698.281C250.404 696.333 250.548 694.369 250.574 692.401V692.5L243.81 680.624H243.993L236.328 684.784H224.411H219.493C218.734 684.784 217.989 684.784 217.282 684.784C216.617 684.828 215.958 684.956 215.32 685.165C214.235 685.527 213.235 686.138 212.39 686.957C211.757 687.554 211.214 688.253 210.781 689.03L209.957 690.44L209.735 690.821L209.656 690.878Z" fill="#263238"/>
<path d="M736.074 628.523C730.658 619.567 724.393 614.589 706.825 612.402H702.234C668.341 613.616 638.294 620.864 609.895 640.864C602.595 645.984 595.178 653.092 594.734 662.457C594.25 672.329 601.72 680.51 609.555 685.587C625.108 695.672 643.565 698.704 661.604 701.328C674.541 703.202 687.765 704.98 700.624 702.738C713.483 700.495 726.342 693.781 733.406 681.934C738.377 673.613 740.116 663.487 740.403 653.586C740.665 644.983 740.43 635.716 736.074 628.523Z" fill="#0075FF"/>
<path d="M712.855 643.953C712.749 643.898 712.652 643.827 712.568 643.741L711.782 643.092C710.734 642.3 709.617 641.62 708.447 641.062C705.412 639.58 700.598 638.706 694.62 638.777C682.69 638.932 666.052 639.496 648.34 644.292C640.004 646.423 631.849 649.301 623.957 652.895C620.521 654.468 617.217 656.355 614.08 658.536C612.669 659.523 611.354 660.662 610.156 661.935C609.111 663.144 608.23 664.507 607.54 665.983C606.95 667.333 606.512 668.753 606.232 670.214C606.003 671.544 605.911 672.897 605.957 674.248C606.067 676.422 606.509 678.562 607.266 680.581C607.949 682.286 608.753 683.932 609.673 685.503C609.673 685.503 609.594 685.418 609.45 685.22C609.306 685.023 609.11 684.698 608.861 684.346C608.55 683.867 608.267 683.368 608.011 682.851C607.633 682.158 607.301 681.437 607.016 680.693C606.22 678.65 605.751 676.475 605.63 674.262C605.563 672.879 605.642 671.493 605.865 670.129C606.414 666.888 607.817 663.887 609.908 661.484C611.105 660.176 612.419 659 613.832 657.972C616.985 655.75 620.311 653.829 623.774 652.231C631.678 648.601 639.858 645.709 648.222 643.586C666.025 638.762 682.729 638.283 694.673 638.255C700.663 638.255 705.556 639.214 708.604 640.807C709.779 641.389 710.89 642.113 711.914 642.965L712.672 643.684C712.789 643.854 712.868 643.939 712.855 643.953Z" fill="#211F54"/>
<path d="M596.068 662.063C595.701 662.733 595.118 663.233 594.43 663.47C593.743 663.706 592.999 663.663 592.34 663.346C591.685 663.036 591.031 662.754 590.378 662.43C589.638 662.134 588.969 661.666 588.417 661.059C587.865 660.452 587.445 659.72 587.186 658.918C587.006 657.454 587.278 655.969 587.958 654.687C589.109 651.866 590.364 649.2 591.751 646.563C592.284 645.333 593.087 644.263 594.092 643.446C594.766 643.027 595.515 642.768 596.289 642.687C597.063 642.608 597.844 642.707 598.58 642.981C600.045 643.536 601.433 644.309 602.7 645.279C602.7 645.279 603.734 645.604 603.236 647.945C602.87 649.68 598.514 657.832 596.068 662.063Z" fill="#211F54"/>
<path d="M647.842 643.798C646.473 640.54 645.315 637.184 644.376 633.755C643.228 630.404 642.288 626.974 641.563 623.488C644.088 630.094 646.185 636.879 647.842 643.798Z" fill="#211F54"/>
<g opacity="0.3">
<path opacity="0.3" d="M739.581 695.148C751.499 682.298 751.499 661.464 739.581 648.615C727.663 635.765 708.341 635.765 696.423 648.615C684.505 661.464 684.505 682.298 696.423 695.148C708.341 707.998 727.663 707.998 739.581 695.148Z" fill="black"/>
</g>
<path d="M744.123 698.298C756.041 685.449 756.041 664.615 744.123 651.765C732.205 638.916 712.882 638.916 700.964 651.765C689.046 664.615 689.046 685.449 700.964 698.298C712.882 711.149 732.205 711.149 744.123 698.298Z" fill="#143C8B"/>
<path d="M722.666 702.526C717.617 702.526 712.683 700.912 708.486 697.888C704.288 694.864 701.017 690.565 699.086 685.537C697.155 680.508 696.651 674.975 697.636 669.637C698.622 664.298 701.053 659.395 704.624 655.548C708.195 651.7 712.743 649.08 717.695 648.02C722.646 646.96 727.778 647.508 732.441 649.592C737.104 651.677 741.089 655.206 743.892 659.733C746.694 664.259 748.189 669.581 748.187 675.024C748.176 682.317 745.484 689.308 740.699 694.464C735.915 699.619 729.43 702.519 722.666 702.526ZM722.666 648.931C717.877 648.931 713.195 650.463 709.214 653.331C705.232 656.2 702.128 660.277 700.296 665.048C698.463 669.818 697.983 675.067 698.918 680.131C699.853 685.195 702.159 689.847 705.544 693.498C708.93 697.149 713.245 699.635 717.942 700.643C722.639 701.649 727.507 701.132 731.931 699.157C736.356 697.181 740.138 693.836 742.798 689.542C745.459 685.249 746.878 680.201 746.878 675.038C746.875 668.114 744.323 661.474 739.783 656.578C735.243 651.68 729.087 648.925 722.666 648.918V648.931Z" fill="#0075FF"/>
<path d="M452.255 235.378C452.255 235.378 470.491 231.401 482.538 240.526C489.497 245.801 512.807 289.593 512.807 289.593L478.313 308.859L452.255 235.378Z" fill="#0075FF"/>
<path d="M480.485 307.646L486.319 331.622L449.195 374.131L457.528 394.793C457.528 394.793 508.138 360.464 514.953 349.577C521.768 338.689 517.425 322.342 515.751 316.362C514.077 310.382 508.479 292.047 508.479 292.047L480.485 307.646Z" fill="#FFBF9D"/>
<path d="M404.915 422.213C404.915 422.213 419.004 404.259 420.352 402.637C421.698 401.015 438.927 384.64 438.927 384.64L449.953 373.356L462.302 389.097L456.599 395.894C456.599 395.894 455.29 401.537 453.642 403.949C451.994 406.36 439.253 407.15 439.253 407.15L437.382 413.679L439.031 416.401L442.589 415.979C442.589 415.979 442.589 419.857 440.391 420.577C438.728 420.973 437 420.929 435.355 420.45C434.99 421.191 434.405 421.779 433.695 422.122C432.984 422.465 432.187 422.541 431.431 422.339C431.008 422.198 430.606 421.989 430.241 421.719C428.548 420.523 427.262 418.766 426.578 416.712L425.715 414.201L424.773 419.449L428.265 422.96C428.518 423.21 428.694 423.537 428.77 423.898C428.846 424.258 428.817 424.636 428.69 424.979C428.561 425.322 428.341 425.615 428.054 425.819C427.768 426.022 427.431 426.127 427.087 426.12H426.591C424.518 425.466 422.569 424.42 420.835 423.03C419.357 421.972 418.821 419.532 418.781 417.615L419.305 415.373C419.305 415.373 409.939 423.186 407.532 424.202C405.662 424.977 404.915 422.213 404.915 422.213Z" fill="#FFBF9D"/>
<path d="M504.763 334.444C501.751 333.335 498.668 332.458 495.541 331.82C492.376 331.428 489.188 331.283 486.005 331.383C486.9 331.04 487.841 330.855 488.791 330.833C491.077 330.636 493.377 330.72 495.645 331.086C497.909 331.458 500.127 332.111 502.252 333.034C503.149 333.365 503.995 333.841 504.763 334.444Z" fill="#FF9A6C"/>
<path d="M424.838 401.931C424.903 402.044 424.197 402.594 423.294 403.722C422.136 405.213 421.249 406.926 420.677 408.771C420.102 410.611 419.665 412.497 419.37 414.413C419.29 415.237 419.114 416.048 418.846 416.825C418.721 416.003 418.721 415.164 418.846 414.342C419.026 412.342 419.426 410.373 420.036 408.475C420.632 406.545 421.624 404.784 422.941 403.328C423.461 402.706 424.111 402.227 424.838 401.931Z" fill="#FF9A6C"/>
<path d="M431.209 401.31C431.209 401.422 430.568 401.888 429.652 402.861C428.464 404.14 427.53 405.666 426.906 407.347C425.428 411.324 425.597 414.934 425.388 414.906C425.173 414.158 425.11 413.369 425.205 412.593C425.252 410.697 425.611 408.825 426.264 407.065C426.921 405.29 427.972 403.715 429.325 402.481C429.852 401.926 430.5 401.523 431.209 401.31Z" fill="#FF9A6C"/>
<path d="M435.578 401.31C435.121 402.25 434.592 403.146 433.995 403.989C432.621 405.994 431.775 408.363 431.549 410.844C431.632 413.337 432.372 415.754 433.681 417.812C434.24 418.676 434.734 419.586 435.159 420.534C434.421 419.827 433.785 419.005 433.276 418.094C432.651 417.143 432.116 416.127 431.68 415.061C431.122 413.733 430.846 412.288 430.868 410.83C431.085 408.207 432.039 405.717 433.603 403.694C434.144 402.795 434.811 401.992 435.578 401.31Z" fill="#FF9A6C"/>
<path d="M512.807 289.594C512.604 289.764 512.385 289.911 512.153 290.032L510.205 291.202L502.932 295.433L478.47 309.227L478.13 309.424L477.999 309.029C477.593 307.844 477.175 306.575 476.691 305.305C472.661 293.458 469.012 282.74 466.344 274.869C465.035 271.062 463.911 267.945 463.125 265.688L462.25 263.191C462.122 262.909 462.03 262.611 461.974 262.303C462.135 262.563 462.266 262.842 462.367 263.135C462.616 263.685 462.956 264.545 463.374 265.575C464.225 267.704 465.389 270.822 466.789 274.686C469.588 282.415 473.329 293.163 477.332 305.051C477.764 306.335 478.182 307.59 478.639 308.775L478.156 308.578L502.709 294.996L510.087 291.005L512.088 289.96C512.309 289.801 512.552 289.677 512.807 289.594Z" fill="#263238"/>
<path d="M401.516 263.382C401.508 263.626 401.481 263.868 401.433 264.107L401.102 266.139C400.807 267.905 400.33 270.453 399.731 273.596C398.545 279.894 396.66 288.531 395.253 298.201C394.593 302.74 394.16 307.315 393.956 311.906C393.919 312.97 393.882 314.002 393.845 315C393.845 315.991 393.845 316.983 393.845 317.915C393.845 319.8 393.965 321.555 394.02 323.152C394.231 326.345 394.452 328.933 394.7 330.708C394.793 331.561 394.875 332.236 394.931 332.761C394.969 333 394.984 333.242 394.976 333.484C394.914 333.251 394.868 333.013 394.838 332.77C394.756 332.256 394.646 331.581 394.516 330.788C394.213 329.023 393.937 326.434 393.679 323.231C393.607 321.624 393.44 319.869 393.45 317.975C393.45 316.983 393.45 316.051 393.45 315C393.45 313.949 393.505 312.957 393.533 311.895C393.713 307.287 394.127 302.691 394.774 298.131C396.191 288.433 398.131 279.805 399.373 273.538C400.008 270.443 400.522 267.925 400.89 266.11C401.065 265.277 401.203 264.602 401.305 264.126C401.348 263.87 401.419 263.62 401.516 263.382Z" fill="#263238"/>
<path opacity="0.3" d="M398.772 276.763C389.086 293.306 387.159 310.203 387.68 329.759L394.919 333.486C393.682 315.994 395.492 292.978 398.772 276.763Z" fill="black"/>
<path d="M284.351 8.73417H118.926V329.145H284.351V8.73417Z" fill="#F7F9FC"/>
<path d="M276.04 18.0341H125.54V319.61H276.04V18.0341Z" fill="white"/>
<path d="M291.351 332.038L284.351 329.144V3.30699H291.351V332.038Z" fill="#DCDDEB"/>
<path d="M162.436 212.829L201.516 173.66C206.471 168.694 212.946 163.353 219.317 165.793C222.376 166.97 224.683 169.788 227.688 171.145C233.684 173.84 240.543 169.948 245.167 165.011C249.789 160.074 253.416 153.893 259.009 150.312C264.602 146.732 273.28 147.193 276.05 153.534V196.17L219.247 222.382L162.436 212.829Z" fill="white"/>
<path d="M125.54 188.33C139.942 181.998 154.317 187.388 164.62 199.929C166.796 202.577 168.771 205.582 171.751 207.08C175.788 209.059 180.489 207.579 184.859 207.08C190.91 206.435 197.008 207.609 202.479 210.468C207.949 213.329 212.579 217.765 215.856 223.286L167.792 248.783L125.557 248.453L125.54 188.33Z" fill="#DCDDEB"/>
<path d="M276.04 188.537C266.55 183.601 258.205 189.574 249.448 195.896C240.692 202.219 232.565 210.331 222.297 212.857C215.437 214.562 208.087 213.61 201.454 216.164C187.953 221.346 180.14 239.842 165.817 240.727C158.049 241.208 151.075 236.119 144.136 232.313C137.198 228.507 131.727 224.879 125.54 229.977V319.582H276.04V188.537Z" fill="#EFF0F7"/>
<path d="M279.309 104.784H125.54V107.998H279.309V104.784Z" fill="#DCDDEB"/>
<path d="M279.309 176.599H125.54V179.813H279.309V176.599Z" fill="#DCDDEB"/>
<path d="M279.309 248.416H125.54V251.629H279.309V248.416Z" fill="#DCDDEB"/>
<path d="M196.98 106.386V328.146H204.583V106.386H196.98Z" fill="#DCDDEB"/>
<path d="M157.961 18.0341H154.518V106.395H157.961V18.0341Z" fill="#DCDDEB"/>
<path d="M187.674 18.0341H184.23V106.395H187.674V18.0341Z" fill="#DCDDEB"/>
<path d="M217.377 18.0341H213.933V106.395H217.377V18.0341Z" fill="#DCDDEB"/>
<path d="M247.088 18.0341H243.646V106.395H247.088V18.0341Z" fill="#DCDDEB"/>
<path d="M118.933 3.30699H111.934V331.133H118.933V3.30699Z" fill="#DCDDEB"/>
<path d="M291.351 0H111.934V8.74379H291.351V0Z" fill="#DCDDEB"/>
<path d="M296.087 333.112H106.97V341.253H296.087V333.112Z" fill="#DCDDEB"/>
<path d="M284.351 329.145L296.087 333.111H106.97L118.925 329.145H284.351Z" fill="#DCDDEB"/>
<path d="M202.048 666.584C202.674 672.138 209.567 674.561 213.827 672.041C215.93 670.691 217.537 668.604 218.38 666.128C219.221 663.651 219.248 660.939 218.453 658.444C222.208 661.445 228.209 658.674 229.768 653.915C231.326 649.158 229.151 643.68 225.537 640.472C222.622 637.886 218.088 636.609 215.154 639.173C216.621 633.718 212.613 627.508 207.412 626.472C202.209 625.435 196.723 629.102 194.669 634.362C192.615 639.621 193.718 645.961 196.875 650.544C193.789 649.136 189.922 651.548 188.991 655.017C188.06 658.488 189.71 662.384 192.433 664.501C195.269 666.503 198.708 667.265 202.048 666.628" fill="#DCDDEB"/>
<defs>
<filter id="filter0_i_1_50" x="117.4" y="383.737" width="501.019" height="260.854" filterUnits="userSpaceOnUse" color-interpolation-filters="sRGB">
<feFlood flood-opacity="0" result="BackgroundImageFix"/>
<feBlend mode="normal" in="SourceGraphic" in2="BackgroundImageFix" result="shape"/>
<feColorMatrix in="SourceAlpha" type="matrix" values="0 0 0 0 0 0 0 0 0 0 0 0 0 0 0 0 0 0 127 0" result="hardAlpha"/>
<feOffset dx="10.3953" dy="-8.31627"/>
<feGaussianBlur stdDeviation="2"/>
<feComposite in2="hardAlpha" operator="arithmetic" k2="-1" k3="1"/>
<feColorMatrix type="matrix" values="0 0 0 0 0.127552 0 0 0 0 0.123438 0 0 0 0 0.329167 0 0 0 0.06 0"/>
<feBlend mode="normal" in2="shape" result="effect1_innerShadow_1_50"/>
</filter>
</defs>
</svg>
